<svg width="129" height="43" viewBox="0 0 129 43" fill="none" xmlns="http://www.w3.org/2000/svg">
<path d="M15.7182 18.113C15.1088 18.113 14.5586 18.0444 14.0677 17.9072C13.5937 17.7872 13.162 17.5986 12.7726 17.3414C12.4002 17.0842 12.0616 16.7669 11.7569 16.3897C11.3676 15.8753 10.9867 15.378 10.6142 14.8978C10.2587 14.4177 9.88631 13.8776 9.49695 13.2774C9.10759 12.6601 8.65052 11.9142 8.12573 11.0396C7.90566 10.6109 7.59248 10.2937 7.1862 10.0879C6.89841 9.93361 6.60216 9.83072 6.29744 9.77928C6.00966 9.71069 5.77266 9.66782 5.58644 9.65067C5.46794 9.65067 5.37483 9.70211 5.30712 9.805C5.25633 9.89074 5.23094 10.0108 5.23094 10.1651V14.8207C5.23094 15.3694 5.36637 15.8238 5.63723 16.1839C5.90809 16.5269 6.37362 16.7584 7.03384 16.8784C7.27084 16.9298 7.44859 16.9898 7.56709 17.0584C7.70252 17.127 7.77023 17.2299 7.77023 17.3671C7.77023 17.47 7.71098 17.5471 7.59248 17.5986C7.47398 17.65 7.31316 17.6757 7.11002 17.6757C6.6868 17.6757 6.30591 17.6586 5.96734 17.6243C5.64569 17.6072 5.33251 17.59 5.0278 17.5729C4.74001 17.5386 4.4353 17.5214 4.11365 17.5214C3.70737 17.5214 3.31801 17.5386 2.94558 17.5729C2.59008 17.59 2.22611 17.6072 1.85368 17.6243C1.49818 17.6586 1.10036 17.6757 0.660216 17.6757C0.474001 17.6757 0.313179 17.65 0.17775 17.5986C0.0592501 17.5643 0 17.4871 0 17.3671C0 17.1442 0.245465 16.9813 0.736395 16.8784C1.37968 16.7584 1.83675 16.5697 2.10761 16.3125C2.3954 16.0553 2.53929 15.6266 2.53929 15.0264V3.86335C2.53929 3.28034 2.50543 2.84307 2.43772 2.55156C2.37001 2.24291 2.22611 2.02856 2.00604 1.90853C1.8029 1.77135 1.47279 1.66846 1.01572 1.59987C0.744859 1.56558 0.55018 1.50556 0.43168 1.41982C0.313179 1.31694 0.253929 1.20548 0.253929 1.08544C0.253929 0.982558 0.313179 0.905393 0.43168 0.85395C0.567109 0.78536 0.72793 0.751064 0.914145 0.751064C1.40507 0.751064 1.78597 0.759638 2.05683 0.776786C2.32768 0.793934 2.58161 0.811082 2.81861 0.828229C3.07254 0.828229 3.38572 0.828229 3.75815 0.828229C4.09672 0.828229 4.40144 0.819655 4.6723 0.802508C4.94316 0.768212 5.24787 0.742491 5.58644 0.725343C5.92501 0.691049 6.35669 0.673901 6.88148 0.673901C8.77749 0.673901 10.2249 1.02543 11.2237 1.72848C12.2394 2.41438 12.7472 3.46039 12.7472 4.86649C12.7472 5.63813 12.5864 6.29831 12.2648 6.84704C11.9601 7.39576 11.5707 7.85017 11.0967 8.21027C10.6227 8.57037 10.1487 8.85331 9.6747 9.05908C9.60699 9.07623 9.57313 9.1191 9.57313 9.18769C9.59006 9.23913 9.61545 9.30772 9.64931 9.39346C10.1741 10.1822 10.6735 10.9367 11.1475 11.6569C11.6384 12.36 12.1547 13.0459 12.6965 13.7147C13.2551 14.3663 13.8899 15.0264 14.6009 15.6952C15.0749 16.141 15.5659 16.4068 16.0737 16.4926C16.5985 16.5783 17.1572 16.6212 17.7497 16.6212C18.0036 16.6212 18.1305 16.7412 18.1305 16.9813C18.1305 17.2728 17.9951 17.4957 17.7243 17.65C17.4703 17.8215 17.1572 17.9415 16.7847 18.0101C16.4123 18.0787 16.0568 18.113 15.7182 18.113ZM6.4498 8.98191C7.17773 8.98191 7.79563 8.81901 8.30348 8.49321C8.82827 8.15026 9.22609 7.70442 9.49695 7.15569C9.78474 6.58982 9.92863 5.98108 9.92863 5.32947C9.92863 4.59213 9.83552 3.94052 9.64931 3.37465C9.4631 2.80878 9.12452 2.37151 8.63359 2.06286C8.14266 1.73705 7.44013 1.57415 6.52598 1.57415C6.05198 1.57415 5.73034 1.74563 5.56105 2.08858C5.39176 2.41438 5.29866 3.04027 5.28173 3.96624C5.2648 4.37778 5.24787 4.92651 5.23094 5.61241C5.23094 6.29831 5.23094 7.11283 5.23094 8.05594C5.23094 8.46749 5.34098 8.7247 5.56105 8.82759C5.78112 8.93047 6.07737 8.98191 6.4498 8.98191Z" fill="#E6ECED"/>
<path d="M24.9731 17.6757C24.7869 17.6757 24.6261 17.65 24.4907 17.5986C24.3722 17.5643 24.3129 17.4871 24.3129 17.3671C24.3129 17.1442 24.5584 16.9813 25.0493 16.8784C25.6926 16.7584 26.1666 16.5697 26.4713 16.3125C26.776 16.0553 26.9284 15.6352 26.9284 15.0522V3.42609C26.9284 2.84307 26.8099 2.43153 26.5729 2.19146C26.3359 1.93425 25.8958 1.73705 25.2525 1.59987C24.7615 1.49699 24.5161 1.32551 24.5161 1.08544C24.5161 0.96541 24.5753 0.879672 24.6938 0.828229C24.8123 0.776786 24.9647 0.751064 25.1509 0.751064C25.591 0.751064 25.9804 0.759638 26.319 0.776786C26.6745 0.793934 27.013 0.811082 27.3347 0.828229C27.6563 0.845377 28.0034 0.85395 28.3758 0.85395C28.7313 0.85395 29.0614 0.85395 29.3661 0.85395C29.6878 0.836803 30.0094 0.819655 30.3311 0.802508C30.6696 0.78536 31.0505 0.776786 31.4737 0.776786C31.6769 0.776786 31.8377 0.802507 31.9562 0.85395C32.0747 0.888246 32.1339 0.96541 32.1339 1.08544C32.1339 1.22262 32.0662 1.33408 31.9308 1.41982C31.8123 1.48841 31.6346 1.54843 31.3976 1.59987C30.7373 1.7542 30.2718 1.9514 30.0009 2.19146C29.747 2.43153 29.62 2.84307 29.62 3.42609V15.0522C29.62 15.618 29.7809 16.0296 30.1025 16.2868C30.4242 16.544 30.8982 16.7412 31.5245 16.8784C31.7784 16.9298 31.9647 16.9898 32.0832 17.0584C32.2017 17.127 32.2609 17.2299 32.2609 17.3671C32.2609 17.47 32.2017 17.5471 32.0832 17.5986C31.9816 17.65 31.8292 17.6757 31.6261 17.6757C31.2029 17.6757 30.8135 17.6586 30.458 17.6243C30.1025 17.6072 29.7555 17.59 29.4169 17.5729C29.0953 17.5557 28.7482 17.5471 28.3758 17.5471C27.9695 17.5471 27.5886 17.5557 27.2331 17.5729C26.8945 17.59 26.539 17.6072 26.1666 17.6243C25.7942 17.6586 25.3964 17.6757 24.9731 17.6757Z" fill="#E6ECED"/>
<path d="M39.9462 17.6757C39.76 17.6757 39.6077 17.6415 39.4892 17.5729C39.3707 17.5214 39.3114 17.4443 39.3114 17.3414C39.3114 17.1356 39.5484 16.9813 40.0224 16.8784C40.6488 16.7584 41.0635 16.5697 41.2667 16.3125C41.4698 16.0553 41.5714 15.6352 41.5714 15.0522V3.40037C41.5714 2.81735 41.4952 2.40581 41.3428 2.16574C41.1905 1.92568 40.8011 1.73705 40.1748 1.59987C39.6838 1.49699 39.4384 1.33408 39.4384 1.11116C39.4384 1.00828 39.4892 0.922541 39.5907 0.85395C39.7092 0.78536 39.8701 0.751064 40.0732 0.751064C40.5133 0.751064 40.8858 0.759638 41.1905 0.776786C41.4952 0.793934 41.783 0.811082 42.0538 0.828229C42.3416 0.845377 42.6548 0.85395 42.9934 0.85395C43.3489 0.85395 43.6705 0.85395 43.9583 0.85395C44.263 0.836803 44.5762 0.819655 44.8979 0.802508C45.2364 0.78536 45.6173 0.776786 46.0405 0.776786C46.4807 0.776786 46.7008 0.888245 46.7008 1.11116C46.7008 1.24835 46.633 1.35123 46.4976 1.41982C46.3791 1.48841 46.2014 1.54843 45.9644 1.59987C45.3211 1.7542 44.8725 1.96854 44.6185 2.24291C44.3815 2.51727 44.263 2.90309 44.263 3.40037V8.31316C44.263 8.43319 44.2969 8.51036 44.3646 8.54465C44.4492 8.57895 44.5339 8.59609 44.6185 8.59609H53.0998C53.2521 8.59609 53.3283 8.48463 53.3283 8.26171V3.40037C53.3283 2.92024 53.2098 2.54299 52.9728 2.26863C52.7527 1.97712 52.3126 1.7542 51.6524 1.59987C51.3984 1.54843 51.2122 1.48841 51.0937 1.41982C50.9752 1.35123 50.916 1.24835 50.916 1.11116C50.916 0.888245 51.1276 0.776786 51.5508 0.776786C51.974 0.776786 52.3634 0.78536 52.7189 0.802508C53.0744 0.819655 53.4129 0.836803 53.7346 0.85395C54.0732 0.85395 54.4202 0.85395 54.7757 0.85395C55.0973 0.85395 55.3767 0.845377 55.6137 0.828229C55.8676 0.811082 56.13 0.793934 56.4008 0.776786C56.6886 0.759638 57.0526 0.751064 57.4927 0.751064C57.6959 0.751064 57.8567 0.78536 57.9752 0.85395C58.0937 0.922541 58.153 1.00828 58.153 1.11116C58.153 1.33408 57.9075 1.49699 57.4166 1.59987C56.7902 1.73705 56.4008 1.94282 56.2485 2.21719C56.0961 2.4744 56.02 2.86022 56.02 3.37465V15.0264C56.02 15.6266 56.1046 16.0553 56.2739 16.3125C56.4601 16.5697 56.8579 16.7584 57.4674 16.8784C57.9414 16.9813 58.1784 17.1356 58.1784 17.3414C58.1784 17.4443 58.1106 17.5214 57.9752 17.5729C57.8567 17.6415 57.7044 17.6757 57.5181 17.6757C57.1118 17.6757 56.7479 17.6586 56.4262 17.6243C56.1215 17.6072 55.8253 17.59 55.5375 17.5729C55.2497 17.5557 54.9365 17.5471 54.5979 17.5471C54.2424 17.5471 53.9123 17.5557 53.6076 17.5729C53.3198 17.59 53.0067 17.6072 52.6681 17.6243C52.3295 17.6586 51.9486 17.6757 51.5254 17.6757C51.3223 17.6757 51.1614 17.6415 51.0429 17.5729C50.9414 17.5214 50.8906 17.4443 50.8906 17.3414C50.8906 17.2042 50.9414 17.1099 51.0429 17.0584C51.1614 16.9898 51.3477 16.9298 51.6016 16.8784C52.1772 16.7584 52.6088 16.5612 52.8966 16.2868C53.1844 16.0124 53.3283 15.6095 53.3283 15.0779V10.1137C53.3283 10.0108 53.3198 9.92503 53.3029 9.85644C53.286 9.7707 53.2267 9.72784 53.1252 9.72784H44.4662C44.3307 9.72784 44.263 9.83072 44.263 10.0365V14.8978C44.263 15.4123 44.4323 15.841 44.7709 16.1839C45.1095 16.5269 45.575 16.7584 46.1675 16.8784C46.4214 16.9298 46.6076 16.9898 46.7261 17.0584C46.8446 17.1099 46.9039 17.2042 46.9039 17.3414C46.9039 17.4443 46.8446 17.5214 46.7261 17.5729C46.6076 17.6415 46.4468 17.6757 46.2437 17.6757C45.8205 17.6757 45.4311 17.6586 45.0756 17.6243C44.7201 17.6072 44.3731 17.59 44.0345 17.5729C43.7129 17.5557 43.3658 17.5471 42.9934 17.5471C42.6548 17.5471 42.3332 17.5557 42.0285 17.5729C41.7237 17.59 41.4021 17.6072 41.0635 17.6243C40.7419 17.6586 40.3695 17.6757 39.9462 17.6757Z" fill="#E6ECED"/>
<path d="M66.1172 17.7015C65.931 17.7015 65.7786 17.6672 65.6601 17.5986C65.5416 17.53 65.4824 17.4528 65.4824 17.3671C65.4824 17.2299 65.5501 17.127 65.6855 17.0584C65.821 16.9727 65.931 16.9213 66.0156 16.9041C66.6589 16.7498 67.1329 16.5526 67.4376 16.3125C67.7593 16.0724 67.9201 15.6695 67.9201 15.1036V3.24604C67.9201 2.8345 67.8778 2.53442 67.7931 2.34579C67.7085 2.14002 67.5477 1.98569 67.3107 1.88281C67.0906 1.77992 66.769 1.68561 66.3457 1.59987C65.8548 1.49699 65.6094 1.32551 65.6094 1.08544C65.6094 0.96541 65.6686 0.879672 65.7871 0.828229C65.9225 0.776786 66.0834 0.751064 66.2696 0.751064C66.6928 0.751064 67.0737 0.759638 67.4122 0.776786C67.7508 0.793934 68.0725 0.811082 68.3772 0.828229C68.6819 0.845377 69.0205 0.85395 69.3929 0.85395C69.7823 0.85395 70.1547 0.85395 70.5102 0.85395C70.8657 0.836803 71.2297 0.819655 71.6021 0.802508C71.9745 0.78536 72.3723 0.776786 72.7955 0.776786C72.9987 0.776786 73.1511 0.802507 73.2526 0.85395C73.3711 0.888246 73.4304 0.96541 73.4304 1.08544C73.4304 1.22262 73.3711 1.33408 73.2526 1.41982C73.1341 1.48841 72.9479 1.54843 72.694 1.59987C72.0507 1.7542 71.5428 1.92568 71.1704 2.1143C70.798 2.28578 70.6118 2.62015 70.6118 3.11743V15.0264C70.6118 15.558 70.7218 15.9438 70.9419 16.1839C71.1789 16.4068 71.6529 16.5183 72.3639 16.5183H75.3094C75.7496 16.5183 76.1305 16.4497 76.4521 16.3125C76.7907 16.1753 77.0531 16.021 77.2393 15.8495C77.561 15.558 77.8064 15.2837 77.9757 15.0264C78.1619 14.7521 78.3566 14.392 78.5597 13.9461C78.6444 13.7575 78.7375 13.5775 78.8391 13.406C78.9406 13.2345 79.0507 13.1488 79.1692 13.1488C79.2877 13.1488 79.3723 13.2088 79.4231 13.3288C79.4739 13.4317 79.4993 13.5346 79.4993 13.6375C79.4993 13.6718 79.4908 13.7147 79.4739 13.7661C79.457 13.8175 79.4485 13.869 79.4485 13.9204C79.33 14.3834 79.22 14.795 79.1184 15.1551C79.0168 15.5152 78.9322 15.8581 78.8645 16.1839C78.8137 16.5097 78.7713 16.8612 78.7375 17.2385C78.7206 17.3585 78.6867 17.47 78.6359 17.5729C78.5851 17.6586 78.492 17.7015 78.3566 17.7015C77.6964 17.7015 76.9938 17.6929 76.249 17.6757C75.5041 17.6586 74.7508 17.6415 73.989 17.6243C73.2272 17.6243 72.4739 17.6157 71.729 17.5986C71.0011 17.5814 70.2986 17.5729 69.6214 17.5729C69.2152 17.5729 68.7581 17.5814 68.2502 17.5986C67.7593 17.6157 67.3022 17.6329 66.879 17.65C66.4727 17.6843 66.2188 17.7015 66.1172 17.7015Z" fill="#E6ECED"/>
<path d="M86.1766 17.7015C85.9735 17.7015 85.8042 17.6672 85.6688 17.5986C85.5333 17.5471 85.4656 17.4614 85.4656 17.3414C85.4656 17.2042 85.5333 17.0927 85.6688 17.007C85.8042 16.9213 85.9904 16.8355 86.2274 16.7498C86.6845 16.6126 87.0992 16.4068 87.4717 16.1325C87.8441 15.8581 88.1488 15.438 88.3858 14.8721C88.8429 13.8261 89.2661 12.8316 89.6555 11.8884C90.0448 10.9282 90.4172 9.98505 90.7727 9.05908C91.1282 8.13311 91.4922 7.18142 91.8646 6.204C92.2371 5.20944 92.618 4.15486 93.0073 3.04027C93.1597 2.64588 93.2697 2.32007 93.3374 2.06286C93.4051 1.78849 93.4475 1.54843 93.4644 1.34266C93.6845 1.29121 93.8876 1.23977 94.0738 1.18833C94.26 1.11974 94.4632 1.02543 94.6833 0.905394C94.8864 0.802508 95.0388 0.656753 95.1403 0.46813C95.2588 0.262358 95.3519 0.116603 95.4196 0.0308652C95.4535 0.0137178 95.4874 0.00514415 95.5212 0.00514415C95.572 -0.0120032 95.6143 0.0137184 95.6482 0.0823089C95.699 0.168047 95.7328 0.262358 95.7498 0.365244C95.7836 0.468129 95.8175 0.579589 95.8513 0.699622C96.2407 1.9514 96.6385 3.22889 97.0448 4.53211C97.468 5.81818 97.8828 7.07853 98.2891 8.31316C98.6953 9.54779 99.0762 10.6967 99.4317 11.7598C99.7872 12.8058 100.092 13.7232 100.346 14.512C100.532 15.0779 100.752 15.5152 101.006 15.8238C101.26 16.1153 101.531 16.3382 101.819 16.4926C102.106 16.6297 102.42 16.7326 102.758 16.8012C103.012 16.8527 103.198 16.9298 103.317 17.0327C103.452 17.1356 103.52 17.2556 103.52 17.3928C103.52 17.4957 103.452 17.5643 103.317 17.5986C103.198 17.65 103.046 17.6757 102.86 17.6757C102.589 17.6757 102.233 17.6586 101.793 17.6243C101.353 17.6072 100.896 17.59 100.422 17.5729C99.948 17.5557 99.5164 17.5471 99.127 17.5471C98.8054 17.5471 98.4499 17.5471 98.0605 17.5471C97.6712 17.5471 97.2987 17.5557 96.9432 17.5729C96.6046 17.59 96.3084 17.5986 96.0545 17.5986C95.8513 17.5986 95.682 17.5729 95.5466 17.5214C95.4281 17.4528 95.3689 17.3671 95.3689 17.2642C95.3689 17.127 95.445 17.0156 95.5974 16.9298C95.7498 16.8441 95.9275 16.7841 96.1307 16.7498C96.7062 16.6469 97.121 16.4926 97.3749 16.2868C97.6458 16.081 97.7558 15.8067 97.705 15.4637C97.6881 15.1722 97.6288 14.8121 97.5273 14.3834C97.4257 13.9376 97.3072 13.4746 97.1718 12.9945C97.0363 12.4972 96.9094 12.0428 96.7909 11.6312C96.757 11.494 96.6978 11.4083 96.6131 11.374C96.5285 11.3397 96.3846 11.3226 96.1814 11.3226H91.4837C91.3991 11.3226 91.3229 11.3569 91.2552 11.4254C91.1875 11.4769 91.1198 11.5883 91.0521 11.7598C91.0013 11.9656 90.9166 12.2314 90.7981 12.5572C90.6966 12.8658 90.595 13.2002 90.4934 13.5603C90.3919 13.9033 90.2987 14.2291 90.2141 14.5377C90.1464 14.8292 90.1041 15.0436 90.0871 15.1808C90.0363 15.6095 90.1379 15.9524 90.3919 16.2096C90.6627 16.4497 91.0605 16.6383 91.5853 16.7755C92.0932 16.9127 92.3471 17.0842 92.3471 17.2899C92.3471 17.41 92.2794 17.4957 92.144 17.5471C92.0255 17.5814 91.8646 17.5986 91.6615 17.5986C91.3399 17.5986 90.9674 17.59 90.5442 17.5729C90.121 17.5557 89.6724 17.5471 89.1984 17.5471C88.6567 17.5471 88.1319 17.5729 87.624 17.6243C87.1162 17.6757 86.6337 17.7015 86.1766 17.7015ZM92.1947 10.268H95.9021C96.1391 10.268 96.2576 10.2251 96.2576 10.1394C96.2576 10.0879 96.2492 10.0451 96.2322 10.0108C96.2322 9.97648 96.2238 9.92503 96.2068 9.85644L94.3278 3.76047C94.2431 3.48611 94.1754 3.34893 94.1246 3.34893C94.0908 3.34893 94.0315 3.47753 93.9469 3.73475L91.7377 9.85644C91.7038 9.95933 91.6869 10.0279 91.6869 10.0622C91.6869 10.148 91.7292 10.208 91.8139 10.2423C91.9154 10.2594 92.0424 10.268 92.1947 10.268Z" fill="#E6ECED"/>
<path d="M110.535 17.6757C110.348 17.6757 110.196 17.6415 110.078 17.5729C109.959 17.5214 109.9 17.4443 109.9 17.3414C109.9 17.1356 110.137 16.9813 110.611 16.8784C111.237 16.7584 111.652 16.5697 111.855 16.3125C112.058 16.0553 112.16 15.6352 112.16 15.0522V3.40037C112.16 2.81735 112.084 2.40581 111.931 2.16574C111.779 1.92568 111.389 1.73705 110.763 1.59987C110.272 1.49699 110.027 1.33408 110.027 1.11116C110.027 1.00828 110.078 0.922541 110.179 0.85395C110.298 0.78536 110.458 0.751064 110.662 0.751064C111.102 0.751064 111.474 0.759638 111.779 0.776786C112.084 0.793934 112.371 0.811082 112.642 0.828229C112.93 0.845377 113.243 0.85395 113.582 0.85395C113.937 0.85395 114.259 0.85395 114.547 0.85395C114.851 0.836803 115.165 0.819655 115.486 0.802508C115.825 0.78536 116.206 0.776786 116.629 0.776786C117.069 0.776786 117.289 0.888245 117.289 1.11116C117.289 1.24835 117.221 1.35123 117.086 1.41982C116.967 1.48841 116.79 1.54843 116.553 1.59987C115.909 1.7542 115.461 1.96854 115.207 2.24291C114.97 2.51727 114.851 2.90309 114.851 3.40037V8.31316C114.851 8.43319 114.885 8.51036 114.953 8.54465C115.038 8.57895 115.122 8.59609 115.207 8.59609H123.688C123.84 8.59609 123.917 8.48463 123.917 8.26171V3.40037C123.917 2.92024 123.798 2.54299 123.561 2.26863C123.341 1.97712 122.901 1.7542 122.241 1.59987C121.987 1.54843 121.801 1.48841 121.682 1.41982C121.564 1.35123 121.504 1.24835 121.504 1.11116C121.504 0.888245 121.716 0.776786 122.139 0.776786C122.562 0.776786 122.952 0.78536 123.307 0.802508C123.663 0.819655 124.001 0.836803 124.323 0.85395C124.662 0.85395 125.009 0.85395 125.364 0.85395C125.686 0.85395 125.965 0.845377 126.202 0.828229C126.456 0.811082 126.718 0.793934 126.989 0.776786C127.277 0.759638 127.641 0.751064 128.081 0.751064C128.284 0.751064 128.445 0.78536 128.564 0.85395C128.682 0.922541 128.741 1.00828 128.741 1.11116C128.741 1.33408 128.496 1.49699 128.005 1.59987C127.379 1.73705 126.989 1.94282 126.837 2.21719C126.684 2.4744 126.608 2.86022 126.608 3.37465V15.0264C126.608 15.6266 126.693 16.0553 126.862 16.3125C127.048 16.5697 127.446 16.7584 128.056 16.8784C128.53 16.9813 128.767 17.1356 128.767 17.3414C128.767 17.4443 128.699 17.5214 128.564 17.5729C128.445 17.6415 128.293 17.6757 128.106 17.6757C127.7 17.6757 127.336 17.6586 127.015 17.6243C126.71 17.6072 126.414 17.59 126.126 17.5729C125.838 17.5557 125.525 17.5471 125.186 17.5471C124.831 17.5471 124.501 17.5557 124.196 17.5729C123.908 17.59 123.595 17.6072 123.256 17.6243C122.918 17.6586 122.537 17.6757 122.114 17.6757C121.911 17.6757 121.75 17.6415 121.631 17.5729C121.53 17.5214 121.479 17.4443 121.479 17.3414C121.479 17.2042 121.53 17.1099 121.631 17.0584C121.75 16.9898 121.936 16.9298 122.19 16.8784C122.766 16.7584 123.197 16.5612 123.485 16.2868C123.773 16.0124 123.917 15.6095 123.917 15.0779V10.1137C123.917 10.0108 123.908 9.92503 123.891 9.85644C123.874 9.7707 123.815 9.72784 123.714 9.72784H115.055C114.919 9.72784 114.851 9.83072 114.851 10.0365V14.8978C114.851 15.4123 115.021 15.841 115.359 16.1839C115.698 16.5269 116.163 16.7584 116.756 16.8784C117.01 16.9298 117.196 16.9898 117.314 17.0584C117.433 17.1099 117.492 17.2042 117.492 17.3414C117.492 17.4443 117.433 17.5214 117.314 17.5729C117.196 17.6415 117.035 17.6757 116.832 17.6757C116.409 17.6757 116.019 17.6586 115.664 17.6243C115.308 17.6072 114.961 17.59 114.623 17.5729C114.301 17.5557 113.954 17.5471 113.582 17.5471C113.243 17.5471 112.922 17.5557 112.617 17.5729C112.312 17.59 111.99 17.6072 111.652 17.6243C111.33 17.6586 110.958 17.6757 110.535 17.6757Z" fill="#E6ECED"/>
<path d="M4.54692 42.7637C4.42472 42.7637 4.31918 42.7468 4.2303 42.713C4.15254 42.6905 4.11365 42.6399 4.11365 42.5611C4.11365 42.4148 4.27474 42.3079 4.59691 42.2404C5.01907 42.1616 5.33013 42.0379 5.5301 41.8691C5.73007 41.7003 5.83006 41.4246 5.83006 41.042V33.4123C5.83006 33.0297 5.75229 32.7597 5.59676 32.6021C5.44123 32.4333 5.15238 32.3039 4.73023 32.2139C4.40805 32.1464 4.24697 32.0338 4.24697 31.8763C4.24697 31.7975 4.28585 31.7413 4.36361 31.7075C4.44138 31.6737 4.54137 31.6569 4.66357 31.6569C4.95241 31.6569 5.20793 31.6625 5.43012 31.6737C5.66341 31.685 5.8856 31.6962 6.09668 31.7075C6.30776 31.7187 6.5355 31.7244 6.77991 31.7244C7.01321 31.7244 7.22984 31.7244 7.42981 31.7244C7.64089 31.7131 7.85197 31.7019 8.06305 31.6906C8.28523 31.6794 8.5352 31.6737 8.81293 31.6737C8.94624 31.6737 9.05178 31.6906 9.12955 31.7244C9.20731 31.7469 9.2462 31.7975 9.2462 31.8763C9.2462 31.9663 9.20176 32.0395 9.11288 32.0957C9.03512 32.1407 8.91847 32.1801 8.76294 32.2139C8.32967 32.3152 8.02416 32.4446 7.84641 32.6021C7.67977 32.7597 7.59645 33.0297 7.59645 33.4123V41.042C7.59645 41.4133 7.70199 41.6834 7.91307 41.8522C8.12415 42.021 8.43521 42.1504 8.84626 42.2404C9.0129 42.2742 9.1351 42.3136 9.21287 42.3586C9.29064 42.4036 9.32952 42.4711 9.32952 42.5611C9.32952 42.6286 9.29064 42.6793 9.21287 42.713C9.14621 42.7468 9.04623 42.7637 8.91292 42.7637C8.63518 42.7637 8.37966 42.7524 8.14637 42.7299C7.91307 42.7187 7.68533 42.7074 7.46314 42.6962C7.25206 42.6849 7.02432 42.6793 6.77991 42.6793C6.51328 42.6793 6.26332 42.6849 6.03003 42.6962C5.80784 42.7074 5.57454 42.7187 5.33013 42.7299C5.08573 42.7524 4.82465 42.7637 4.54692 42.7637Z" fill="#E6ECED"/>
<path d="M24.6381 43C24.527 43 24.3159 42.91 24.0049 42.7299C23.7049 42.5611 23.4105 42.2798 23.1217 41.8859C22.9995 41.7509 22.8106 41.5371 22.5551 41.2445C22.3107 40.9407 22.0163 40.5918 21.6719 40.198C21.3386 39.8041 20.9776 39.3821 20.5887 38.932C20.211 38.4819 19.8277 38.0374 19.4389 37.5985C19.0612 37.1484 18.7001 36.7264 18.3557 36.3325C18.0224 35.9387 17.7225 35.5898 17.4559 35.286C17.2004 34.9822 17.0059 34.7627 16.8726 34.6277C16.8171 34.5489 16.7615 34.487 16.706 34.442C16.6615 34.397 16.6171 34.3745 16.5727 34.3745C16.5282 34.3745 16.4949 34.4195 16.4727 34.5095C16.4505 34.5883 16.4394 34.6614 16.4394 34.729C16.4283 35.2691 16.4227 35.8937 16.4227 36.6026C16.4227 37.3115 16.4171 38.043 16.406 38.797C16.406 39.5397 16.406 40.2374 16.406 40.89C16.406 41.2164 16.4949 41.5033 16.6727 41.7509C16.8504 41.9872 17.1504 42.1504 17.5725 42.2404C17.7281 42.2742 17.8503 42.3136 17.9391 42.3586C18.0391 42.4036 18.0891 42.4711 18.0891 42.5611C18.0891 42.6286 18.0447 42.6793 17.9558 42.713C17.8669 42.7468 17.7558 42.7637 17.6225 42.7637C17.3226 42.7637 17.0893 42.7524 16.9226 42.7299C16.7671 42.7187 16.6227 42.7074 16.4894 42.6962C16.356 42.6962 16.1783 42.6962 15.9561 42.6962C15.745 42.6962 15.5617 42.7018 15.4062 42.713C15.2618 42.7243 15.1173 42.7356 14.9729 42.7468C14.8285 42.7581 14.6507 42.7637 14.4397 42.7637C14.3175 42.7637 14.2064 42.7468 14.1064 42.713C14.0175 42.6905 13.9731 42.6399 13.9731 42.5611C13.9731 42.4824 14.0175 42.4205 14.1064 42.3755C14.1953 42.3192 14.323 42.2685 14.4897 42.2235C14.7896 42.1335 15.0118 41.9703 15.1562 41.734C15.3006 41.4865 15.384 41.1939 15.4062 40.8563C15.4506 40.4287 15.4951 39.866 15.5395 39.1683C15.595 38.4706 15.6395 37.6885 15.6728 36.822C15.7061 35.9555 15.7228 35.0609 15.7228 34.1382C15.7228 33.5418 15.5728 33.1141 15.2729 32.8553C14.9729 32.5965 14.5896 32.3883 14.1231 32.2308C14.0675 32.2083 13.9675 32.1632 13.8231 32.0957C13.6898 32.0282 13.6231 31.9438 13.6231 31.8425C13.6231 31.7413 13.6731 31.6737 13.7731 31.64C13.8731 31.6062 13.9564 31.5893 14.0231 31.5893C14.3119 31.6006 14.5619 31.6118 14.773 31.6231C14.9951 31.6231 15.2062 31.6287 15.4062 31.64C15.6062 31.6512 15.8172 31.6625 16.0394 31.6737C16.2616 31.6737 16.5227 31.6737 16.8226 31.6737C16.9226 31.6737 17.0004 31.7019 17.0559 31.7581C17.1115 31.8031 17.1615 31.8594 17.2059 31.9269C17.3281 32.0732 17.517 32.3039 17.7725 32.619C18.0391 32.9341 18.3446 33.3054 18.689 33.7331C19.0445 34.1607 19.4222 34.6164 19.8222 35.1003C20.2221 35.5729 20.6221 36.0512 21.022 36.5351C21.4219 37.019 21.7996 37.4747 22.1551 37.9023C22.5107 38.33 22.8162 38.7013 23.0717 39.0164C23.3383 39.3202 23.5272 39.5397 23.6383 39.6747C23.6827 39.7197 23.7382 39.7816 23.8049 39.8604C23.8827 39.9392 23.9493 39.9785 24.0049 39.9785C24.1049 39.9785 24.1604 39.8716 24.1715 39.6578C24.1715 39.4328 24.1715 39.0952 24.1715 38.645C24.1715 38.1949 24.1715 37.6716 24.1715 37.0752C24.1826 36.4788 24.1882 35.8543 24.1882 35.2016C24.1882 34.5377 24.1826 33.8793 24.1715 33.2267C24.1604 32.9791 24.0437 32.7709 23.8216 32.6021C23.5994 32.4221 23.3605 32.3039 23.105 32.2476C22.9495 32.2251 22.805 32.1858 22.6717 32.1295C22.5384 32.0732 22.4718 32.0001 22.4718 31.9101C22.4718 31.8425 22.5384 31.7919 22.6717 31.7581C22.805 31.7244 22.9328 31.7075 23.055 31.7075C23.2217 31.7075 23.3661 31.7075 23.4883 31.7075C23.6216 31.7075 23.7493 31.7075 23.8716 31.7075C23.9938 31.7075 24.116 31.7075 24.2382 31.7075C24.4937 31.7075 24.6992 31.7075 24.8547 31.7075C25.0103 31.6962 25.1769 31.685 25.3547 31.6737C25.5435 31.6625 25.799 31.6569 26.1212 31.6569C26.2545 31.6569 26.3601 31.6737 26.4378 31.7075C26.5267 31.7413 26.5711 31.7975 26.5711 31.8763C26.5711 32.0338 26.3989 32.1464 26.0546 32.2139C25.6546 32.2927 25.3824 32.3996 25.238 32.5346C25.0936 32.6584 25.0158 32.8666 25.0047 33.1591C25.0047 33.3392 24.9992 33.6374 24.988 34.0538C24.9769 34.4589 24.9658 34.9371 24.9547 35.4885C24.9547 36.0399 24.9492 36.6195 24.9381 37.2271C24.9269 37.8348 24.9214 38.4312 24.9214 39.0164C24.9214 39.6016 24.9214 40.1305 24.9214 40.6031C24.9214 40.8732 24.9325 41.1376 24.9547 41.3964C24.9769 41.644 24.9936 41.8634 25.0047 42.0547C25.0269 42.2348 25.038 42.3698 25.038 42.4598C25.038 42.6737 24.9992 42.8143 24.9214 42.8818C24.8436 42.9606 24.7492 43 24.6381 43Z" fill="#E6ECED"/>
<path d="M34.0508 42.9494C33.5842 42.9494 33.1454 42.8818 32.7344 42.7468C32.3233 42.623 31.9456 42.4317 31.6012 42.1729C31.5568 42.1279 31.5068 42.0772 31.4512 42.021C31.4068 41.9535 31.3735 41.8859 31.3513 41.8184C31.2735 41.5596 31.2179 41.2389 31.1846 40.8563C31.1624 40.4624 31.1457 40.1136 31.1346 39.8097C31.1346 39.731 31.168 39.6747 31.2346 39.6409C31.3013 39.5959 31.379 39.5734 31.4679 39.5734C31.5457 39.5734 31.6068 39.5903 31.6512 39.6241C31.7068 39.6466 31.7456 39.6972 31.7679 39.776C32.0012 40.6312 32.3455 41.2726 32.801 41.7003C33.2565 42.1166 33.7509 42.3248 34.2841 42.3248C34.6619 42.3248 34.984 42.2404 35.2507 42.0716C35.5284 41.9028 35.745 41.6778 35.9006 41.3964C36.0561 41.1038 36.1339 40.7775 36.1339 40.4174C36.1339 39.9898 36.0616 39.6409 35.9172 39.3709C35.7728 39.1008 35.5617 38.8589 35.284 38.645C35.0062 38.4312 34.6619 38.2005 34.2508 37.953C33.8064 37.6829 33.3676 37.4016 32.9343 37.109C32.5122 36.8164 32.1622 36.4732 31.8845 36.0793C31.6068 35.6855 31.4679 35.2016 31.4679 34.6277C31.4679 34.02 31.6068 33.4855 31.8845 33.0241C32.1734 32.5515 32.59 32.1801 33.1343 31.9101C33.6787 31.6287 34.3341 31.4881 35.1007 31.4881C35.5006 31.4881 35.8617 31.5331 36.1838 31.6231C36.5171 31.7019 36.7838 31.7863 36.9837 31.8763C37.0837 31.9101 37.1615 31.9663 37.217 32.0451C37.2837 32.1239 37.3337 32.2195 37.367 32.332C37.4225 32.5684 37.4836 32.8441 37.5503 33.1591C37.617 33.4742 37.6503 33.795 37.6503 34.1213C37.6503 34.2451 37.5614 34.307 37.3837 34.307C37.2837 34.307 37.1892 34.2845 37.1004 34.2394C37.0115 34.1944 36.9559 34.1382 36.9337 34.0707C36.7115 33.4405 36.4338 32.9622 36.1005 32.6359C35.7784 32.3095 35.3673 32.1464 34.8674 32.1464C34.5341 32.1464 34.2286 32.2083 33.9509 32.332C33.6842 32.4446 33.4676 32.6359 33.301 32.906C33.1454 33.1648 33.0677 33.508 33.0677 33.9356C33.0677 34.2394 33.1676 34.5264 33.3676 34.7965C33.5787 35.0553 33.8564 35.3085 34.2008 35.5561C34.5563 35.7924 34.9507 36.0399 35.384 36.2988C35.8395 36.5801 36.2505 36.8727 36.6171 37.1765C36.9837 37.4803 37.2726 37.8292 37.4837 38.223C37.6947 38.6057 37.8003 39.067 37.8003 39.6072C37.8003 40.3161 37.6447 40.9238 37.3337 41.4302C37.0226 41.9253 36.5838 42.3023 36.0172 42.5611C35.4617 42.8199 34.8063 42.9494 34.0508 42.9494Z" fill="#E6ECED"/>
<path d="M45.8259 42.7637C45.7036 42.7637 45.5981 42.7468 45.5092 42.713C45.4204 42.6905 45.3759 42.6399 45.3759 42.5611C45.3759 42.4824 45.4204 42.4205 45.5092 42.3755C45.5981 42.3192 45.7203 42.2742 45.8758 42.2404C46.298 42.1616 46.6146 42.0322 46.8257 41.8522C47.0368 41.6721 47.1423 41.3852 47.1423 40.9913V34.307C47.1423 33.8118 47.1312 33.4405 47.109 33.1929C47.0868 32.9341 47.0534 32.7597 47.009 32.6696C46.9646 32.5684 46.9035 32.5065 46.8257 32.484C46.6924 32.4502 46.5424 32.4333 46.3758 32.4333C46.2091 32.4221 46.0147 32.4164 45.7925 32.4164H45.1426C44.8538 32.4164 44.5649 32.484 44.2761 32.619C43.9983 32.7428 43.7873 32.9228 43.6429 33.1591C43.5984 33.2267 43.5318 33.3223 43.4429 33.4461C43.3651 33.5586 43.2762 33.6599 43.1763 33.7499C43.0763 33.8287 42.9763 33.8681 42.8763 33.8681C42.8208 33.8681 42.7763 33.8456 42.743 33.8006C42.7208 33.7556 42.7097 33.6993 42.7097 33.6318C42.7097 33.508 42.743 33.3842 42.8096 33.2604C42.9874 32.9003 43.1152 32.5852 43.1929 32.3152C43.2707 32.0451 43.3318 31.7244 43.3762 31.353C43.3984 31.173 43.4429 31.0604 43.5095 31.0154C43.5762 30.9704 43.6429 30.9479 43.7095 30.9479C43.7651 30.9479 43.8373 31.0211 43.9261 31.1673C44.0261 31.3024 44.1039 31.4149 44.1594 31.5049C44.2483 31.6062 44.415 31.685 44.6594 31.7413C44.9038 31.7975 45.1315 31.8257 45.3426 31.8257L51.3583 31.8088C51.7027 31.8088 51.986 31.7863 52.2082 31.7413C52.4415 31.6962 52.6304 31.64 52.7748 31.5725C52.9303 31.4937 53.0525 31.4093 53.1414 31.3193C53.2303 31.218 53.3469 31.1673 53.4913 31.1673C53.5358 31.1673 53.5691 31.2067 53.5913 31.2855C53.6135 31.353 53.6246 31.4318 53.6246 31.5218C53.6246 31.5668 53.6191 31.6344 53.608 31.7244C53.5969 31.8144 53.5858 31.8875 53.5747 31.9438C53.5302 32.1576 53.4858 32.3264 53.4413 32.4502C53.408 32.574 53.3802 32.6921 53.358 32.8047C53.3469 32.906 53.3414 33.041 53.3414 33.2098V33.4461C53.3414 33.5811 53.3191 33.7106 53.2747 33.8343C53.2303 33.9581 53.1636 34.02 53.0747 34.02C52.9859 34.02 52.9136 33.9637 52.8581 33.8512C52.8026 33.7274 52.747 33.553 52.6915 33.3279C52.6248 33.0354 52.4748 32.8103 52.2415 32.6528C52.0193 32.4952 51.6472 32.4164 51.125 32.4164H49.7253C49.5031 32.4164 49.3309 32.4558 49.2087 32.5346C49.0865 32.6021 49.0031 32.7709 48.9587 33.041C48.9254 33.2998 48.9087 33.7218 48.9087 34.307V40.9913C48.9087 41.3739 49.0142 41.6553 49.2253 41.8353C49.4475 42.0154 49.7697 42.1504 50.1918 42.2404C50.3474 42.2742 50.464 42.3136 50.5418 42.3586C50.6307 42.4036 50.6751 42.4711 50.6751 42.5611C50.6751 42.6286 50.6362 42.6793 50.5585 42.713C50.4807 42.7468 50.3751 42.7637 50.2418 42.7637C49.9641 42.7637 49.7086 42.7524 49.4753 42.7299C49.242 42.7187 49.0142 42.7074 48.7921 42.6962C48.5699 42.6849 48.3366 42.6793 48.0922 42.6793C47.8255 42.6793 47.5756 42.6849 47.3423 42.6962C47.109 42.7074 46.8701 42.7187 46.6257 42.7299C46.3813 42.7524 46.1147 42.7637 45.8259 42.7637Z" fill="#E6ECED"/>
<path d="M58.1858 42.7637C58.0636 42.7637 57.9581 42.7468 57.8692 42.713C57.7914 42.6905 57.7525 42.6399 57.7525 42.5611C57.7525 42.4148 57.9136 42.3079 58.2358 42.2404C58.658 42.1616 58.969 42.0379 59.169 41.8691C59.369 41.7003 59.4689 41.4246 59.4689 41.042V33.4123C59.4689 33.0297 59.3912 32.7597 59.2356 32.6021C59.0801 32.4333 58.7913 32.3039 58.3691 32.2139C58.0469 32.1464 57.8858 32.0338 57.8858 31.8763C57.8858 31.7975 57.9247 31.7413 58.0025 31.7075C58.0803 31.6737 58.1802 31.6569 58.3025 31.6569C58.5913 31.6569 58.8468 31.6625 59.069 31.6737C59.3023 31.685 59.5245 31.6962 59.7356 31.7075C59.9466 31.7187 60.1744 31.7244 60.4188 31.7244C60.6521 31.7244 60.8687 31.7244 61.0687 31.7244C61.2798 31.7131 61.4908 31.7019 61.7019 31.6906C61.9241 31.6794 62.1741 31.6737 62.4518 31.6737C62.5851 31.6737 62.6907 31.6906 62.7684 31.7244C62.8462 31.7469 62.8851 31.7975 62.8851 31.8763C62.8851 31.9663 62.8406 32.0395 62.7518 32.0957C62.674 32.1407 62.5573 32.1801 62.4018 32.2139C61.9686 32.3152 61.663 32.4446 61.4853 32.6021C61.3187 32.7597 61.2353 33.0297 61.2353 33.4123V41.042C61.2353 41.4133 61.3409 41.6834 61.5519 41.8522C61.763 42.021 62.0741 42.1504 62.4851 42.2404C62.6518 42.2742 62.774 42.3136 62.8518 42.3586C62.9295 42.4036 62.9684 42.4711 62.9684 42.5611C62.9684 42.6286 62.9295 42.6793 62.8518 42.713C62.7851 42.7468 62.6851 42.7637 62.5518 42.7637C62.2741 42.7637 62.0185 42.7524 61.7852 42.7299C61.552 42.7187 61.3242 42.7074 61.102 42.6962C60.8909 42.6849 60.6632 42.6793 60.4188 42.6793C60.1522 42.6793 59.9022 42.6849 59.6689 42.6962C59.4467 42.7074 59.2134 42.7187 58.969 42.7299C58.7246 42.7524 58.4635 42.7637 58.1858 42.7637Z" fill="#E6ECED"/>
<path d="M70.5948 42.7637C70.4726 42.7637 70.3671 42.7468 70.2782 42.713C70.1893 42.6905 70.1449 42.6399 70.1449 42.5611C70.1449 42.4824 70.1893 42.4205 70.2782 42.3755C70.3671 42.3192 70.4893 42.2742 70.6448 42.2404C71.067 42.1616 71.3836 42.0322 71.5947 41.8522C71.8058 41.6721 71.9113 41.3852 71.9113 40.9913V34.307C71.9113 33.8118 71.9002 33.4405 71.878 33.1929C71.8557 32.9341 71.8224 32.7597 71.778 32.6696C71.7335 32.5684 71.6724 32.5065 71.5947 32.484C71.4614 32.4502 71.3114 32.4333 71.1447 32.4333C70.9781 32.4221 70.7837 32.4164 70.5615 32.4164H69.9116C69.6228 32.4164 69.3339 32.484 69.0451 32.619C68.7673 32.7428 68.5563 32.9228 68.4118 33.1591C68.3674 33.2267 68.3007 33.3223 68.2119 33.4461C68.1341 33.5586 68.0452 33.6599 67.9452 33.7499C67.8453 33.8287 67.7453 33.8681 67.6453 33.8681C67.5897 33.8681 67.5453 33.8456 67.512 33.8006C67.4898 33.7556 67.4786 33.6993 67.4786 33.6318C67.4786 33.508 67.512 33.3842 67.5786 33.2604C67.7564 32.9003 67.8841 32.5852 67.9619 32.3152C68.0397 32.0451 68.1008 31.7244 68.1452 31.353C68.1674 31.173 68.2119 31.0604 68.2785 31.0154C68.3452 30.9704 68.4118 30.9479 68.4785 30.9479C68.534 30.9479 68.6062 31.0211 68.6951 31.1673C68.7951 31.3024 68.8729 31.4149 68.9284 31.5049C69.0173 31.6062 69.1839 31.685 69.4283 31.7413C69.6728 31.7975 69.9005 31.8257 70.1116 31.8257L76.1273 31.8088C76.4717 31.8088 76.755 31.7863 76.9772 31.7413C77.2105 31.6962 77.3993 31.64 77.5438 31.5725C77.6993 31.4937 77.8215 31.4093 77.9104 31.3193C77.9992 31.218 78.1159 31.1673 78.2603 31.1673C78.3048 31.1673 78.3381 31.2067 78.3603 31.2855C78.3825 31.353 78.3936 31.4318 78.3936 31.5218C78.3936 31.5668 78.3881 31.6344 78.377 31.7244C78.3659 31.8144 78.3547 31.8875 78.3436 31.9438C78.2992 32.1576 78.2548 32.3264 78.2103 32.4502C78.177 32.574 78.1492 32.6921 78.127 32.8047C78.1159 32.906 78.1103 33.041 78.1103 33.2098V33.4461C78.1103 33.5811 78.0881 33.7106 78.0437 33.8343C77.9992 33.9581 77.9326 34.02 77.8437 34.02C77.7548 34.02 77.6826 33.9637 77.6271 33.8512C77.5715 33.7274 77.516 33.553 77.4604 33.3279C77.3938 33.0354 77.2438 32.8103 77.0105 32.6528C76.7883 32.4952 76.4162 32.4164 75.894 32.4164H74.4942C74.272 32.4164 74.0998 32.4558 73.9776 32.5346C73.8554 32.6021 73.7721 32.7709 73.7277 33.041C73.6943 33.2998 73.6777 33.7218 73.6777 34.307V40.9913C73.6777 41.3739 73.7832 41.6553 73.9943 41.8353C74.2165 42.0154 74.5387 42.1504 74.9608 42.2404C75.1164 42.2742 75.233 42.3136 75.3108 42.3586C75.3997 42.4036 75.4441 42.4711 75.4441 42.5611C75.4441 42.6286 75.4052 42.6793 75.3274 42.713C75.2497 42.7468 75.1441 42.7637 75.0108 42.7637C74.7331 42.7637 74.4776 42.7524 74.2443 42.7299C74.011 42.7187 73.7832 42.7074 73.561 42.6962C73.3389 42.6849 73.1056 42.6793 72.8611 42.6793C72.5945 42.6793 72.3446 42.6849 72.1113 42.6962C71.878 42.7074 71.6391 42.7187 71.3947 42.7299C71.1503 42.7524 70.8837 42.7637 70.5948 42.7637Z" fill="#E6ECED"/>
<path d="M88.4206 42.9325C87.4207 42.9325 86.582 42.7524 85.9043 42.3923C85.2266 42.0322 84.7156 41.5258 84.3712 40.8732C84.0268 40.2092 83.8546 39.4384 83.8546 38.5606V33.5136C83.8546 33.1423 83.7769 32.8497 83.6213 32.6359C83.4769 32.4221 83.2936 32.2927 83.0714 32.2476C82.7159 32.1464 82.5382 32.0226 82.5382 31.8763C82.5382 31.7975 82.5826 31.7413 82.6715 31.7075C82.7604 31.6737 82.8715 31.6569 83.0048 31.6569C83.2936 31.6569 83.588 31.6681 83.888 31.6906C84.1879 31.7131 84.4934 31.7244 84.8045 31.7244C85.0822 31.7244 85.3711 31.7187 85.671 31.7075C85.971 31.685 86.2376 31.6737 86.4709 31.6737C86.6153 31.6737 86.7264 31.6906 86.8042 31.7244C86.8931 31.7581 86.9375 31.8144 86.9375 31.8932C86.9375 31.9832 86.8764 32.0563 86.7542 32.1126C86.6431 32.1576 86.4931 32.2139 86.3043 32.2814C86.1598 32.3377 86.0099 32.4727 85.8543 32.6865C85.7099 32.8891 85.6377 33.1704 85.6377 33.5305V38.1555C85.6377 39.0108 85.7766 39.7141 86.0543 40.2655C86.332 40.8169 86.7153 41.222 87.2041 41.4808C87.6929 41.7396 88.2428 41.8691 88.8539 41.8691C89.9537 41.8691 90.7591 41.5033 91.2702 40.7719C91.7923 40.0292 92.0534 39.0108 92.0534 37.7167C92.0534 37.4578 92.0534 37.1315 92.0534 36.7376C92.0534 36.3438 92.0478 35.9274 92.0367 35.4885C92.0367 35.0497 92.0312 34.6333 92.02 34.2394C92.0089 33.8681 91.9756 33.553 91.9201 33.2942C91.8756 33.0241 91.7979 32.799 91.6868 32.619C91.5757 32.4389 91.4312 32.3208 91.2535 32.2645C91.1424 32.2195 91.0146 32.1689 90.8702 32.1126C90.7369 32.0563 90.6702 31.9832 90.6702 31.8932C90.6702 31.8257 90.7147 31.775 90.8036 31.7413C90.8924 31.7075 91.0091 31.6906 91.1535 31.6906C91.4646 31.6906 91.709 31.6962 91.8867 31.7075C92.0645 31.7187 92.2811 31.7244 92.5366 31.7244C92.7255 31.7244 92.8921 31.7187 93.0366 31.7075C93.1921 31.6962 93.3421 31.685 93.4865 31.6737C93.6309 31.6625 93.7809 31.6569 93.9364 31.6569C94.0697 31.6569 94.1808 31.6737 94.2697 31.7075C94.3586 31.7413 94.403 31.7975 94.403 31.8763C94.403 32.0226 94.2308 32.1351 93.8864 32.2139C93.5642 32.2927 93.3365 32.4446 93.2032 32.6696C93.081 32.8947 93.0088 33.1929 92.9866 33.5643C92.931 34.487 92.8977 35.3366 92.8866 36.1131C92.8755 36.8783 92.8588 37.6435 92.8366 38.4087C92.8255 39.2865 92.62 40.0686 92.22 40.755C91.8312 41.4414 91.309 41.976 90.6536 42.3586C89.9981 42.7412 89.2538 42.9325 88.4206 42.9325Z" fill="#E6ECED"/>
<path d="M102.532 42.7637C102.41 42.7637 102.304 42.7468 102.215 42.713C102.126 42.6905 102.082 42.6399 102.082 42.5611C102.082 42.4824 102.126 42.4205 102.215 42.3755C102.304 42.3192 102.426 42.2742 102.582 42.2404C103.004 42.1616 103.321 42.0322 103.532 41.8522C103.743 41.6721 103.848 41.3852 103.848 40.9913V34.307C103.848 33.8118 103.837 33.4405 103.815 33.1929C103.793 32.9341 103.759 32.7597 103.715 32.6696C103.671 32.5684 103.61 32.5065 103.532 32.484C103.398 32.4502 103.248 32.4333 103.082 32.4333C102.915 32.4221 102.721 32.4164 102.499 32.4164H101.849C101.56 32.4164 101.271 32.484 100.982 32.619C100.704 32.7428 100.493 32.9228 100.349 33.1591C100.304 33.2267 100.238 33.3223 100.149 33.4461C100.071 33.5586 99.9823 33.6599 99.8823 33.7499C99.7823 33.8287 99.6823 33.8681 99.5823 33.8681C99.5268 33.8681 99.4824 33.8456 99.449 33.8006C99.4268 33.7556 99.4157 33.6993 99.4157 33.6318C99.4157 33.508 99.449 33.3842 99.5157 33.2604C99.6934 32.9003 99.8212 32.5852 99.899 32.3152C99.9767 32.0451 100.038 31.7244 100.082 31.353C100.104 31.173 100.149 31.0604 100.216 31.0154C100.282 30.9704 100.349 30.9479 100.416 30.9479C100.471 30.9479 100.543 31.0211 100.632 31.1673C100.732 31.3024 100.81 31.4149 100.865 31.5049C100.954 31.6062 101.121 31.685 101.365 31.7413C101.61 31.7975 101.838 31.8257 102.049 31.8257L108.064 31.8088C108.409 31.8088 108.692 31.7863 108.914 31.7413C109.148 31.6962 109.336 31.64 109.481 31.5725C109.636 31.4937 109.759 31.4093 109.847 31.3193C109.936 31.218 110.053 31.1673 110.197 31.1673C110.242 31.1673 110.275 31.2067 110.297 31.2855C110.32 31.353 110.331 31.4318 110.331 31.5218C110.331 31.5668 110.325 31.6344 110.314 31.7244C110.303 31.8144 110.292 31.8875 110.281 31.9438C110.236 32.1576 110.192 32.3264 110.147 32.4502C110.114 32.574 110.086 32.6921 110.064 32.8047C110.053 32.906 110.047 33.041 110.047 33.2098V33.4461C110.047 33.5811 110.025 33.7106 109.981 33.8343C109.936 33.9581 109.87 34.02 109.781 34.02C109.692 34.02 109.62 33.9637 109.564 33.8512C109.509 33.7274 109.453 33.553 109.397 33.3279C109.331 33.0354 109.181 32.8103 108.948 32.6528C108.725 32.4952 108.353 32.4164 107.831 32.4164H106.431C106.209 32.4164 106.037 32.4558 105.915 32.5346C105.792 32.6021 105.709 32.7709 105.665 33.041C105.631 33.2998 105.615 33.7218 105.615 34.307V40.9913C105.615 41.3739 105.72 41.6553 105.931 41.8353C106.154 42.0154 106.476 42.1504 106.898 42.2404C107.053 42.2742 107.17 42.3136 107.248 42.3586C107.337 42.4036 107.381 42.4711 107.381 42.5611C107.381 42.6286 107.342 42.6793 107.264 42.713C107.187 42.7468 107.081 42.7637 106.948 42.7637C106.67 42.7637 106.415 42.7524 106.181 42.7299C105.948 42.7187 105.72 42.7074 105.498 42.6962C105.276 42.6849 105.043 42.6793 104.798 42.6793C104.532 42.6793 104.282 42.6849 104.048 42.6962C103.815 42.7074 103.576 42.7187 103.332 42.7299C103.087 42.7524 102.821 42.7637 102.532 42.7637Z" fill="#E6ECED"/>
<path d="M115.108 42.7806C114.975 42.7806 114.87 42.7637 114.792 42.7299C114.714 42.6962 114.675 42.6455 114.675 42.578C114.675 42.4317 114.836 42.3248 115.158 42.2573C115.57 42.1673 115.864 42.0435 116.042 41.8859C116.231 41.7171 116.325 41.4358 116.325 41.042V33.4123C116.325 33.0297 116.247 32.754 116.092 32.5852C115.936 32.4164 115.653 32.2927 115.242 32.2139C115.075 32.1801 114.953 32.1351 114.875 32.0788C114.797 32.0226 114.759 31.9551 114.759 31.8763C114.759 31.8088 114.797 31.7581 114.875 31.7244C114.953 31.6794 115.058 31.6569 115.192 31.6569C115.558 31.6569 115.886 31.6625 116.175 31.6737C116.475 31.685 116.764 31.6962 117.042 31.7075C117.33 31.7187 117.641 31.7244 117.975 31.7244C118.419 31.7244 118.886 31.7244 119.374 31.7244C119.874 31.7131 120.324 31.7019 120.724 31.6906C121.102 31.6906 121.413 31.685 121.657 31.6737C121.913 31.6512 122.063 31.64 122.107 31.64C122.174 31.64 122.241 31.6569 122.307 31.6906C122.385 31.7131 122.43 31.7638 122.441 31.8425C122.496 32.1914 122.552 32.5346 122.607 32.8722C122.674 33.1985 122.707 33.4855 122.707 33.7331C122.707 33.8456 122.68 33.9244 122.624 33.9694C122.58 34.0031 122.53 34.02 122.474 34.02C122.418 34.02 122.374 34.0031 122.341 33.9694C122.307 33.9356 122.274 33.885 122.241 33.8175C122.163 33.5924 122.091 33.3898 122.024 33.2098C121.957 33.0185 121.88 32.8778 121.791 32.7878C121.646 32.6303 121.48 32.5121 121.291 32.4333C121.102 32.3546 120.891 32.3152 120.658 32.3152H118.791C118.647 32.3152 118.491 32.3714 118.325 32.484C118.169 32.5852 118.091 32.7315 118.091 32.9228V36.3663C118.091 36.4788 118.125 36.5688 118.191 36.6364C118.258 36.7039 118.336 36.7376 118.425 36.7376H120.008C120.33 36.7376 120.552 36.6645 120.674 36.5182C120.796 36.3719 120.896 36.1468 120.974 35.843C121.052 35.618 121.158 35.5054 121.291 35.5054C121.346 35.5054 121.396 35.5336 121.441 35.5898C121.485 35.6348 121.507 35.708 121.507 35.8093C121.507 35.8768 121.502 35.9893 121.491 36.1469C121.48 36.3044 121.469 36.4676 121.458 36.6364C121.446 36.8052 121.441 36.9402 121.441 37.0415C121.441 37.1653 121.441 37.3172 121.441 37.4972C121.452 37.666 121.463 37.8348 121.474 38.0036C121.485 38.1724 121.491 38.2962 121.491 38.375C121.502 38.4762 121.491 38.5606 121.458 38.6282C121.435 38.6844 121.396 38.7126 121.341 38.7126C121.163 38.7126 121.03 38.5494 120.941 38.223C120.874 37.9305 120.78 37.711 120.658 37.5647C120.547 37.4185 120.38 37.3453 120.158 37.3453H118.608C118.43 37.3453 118.297 37.3734 118.208 37.4297C118.13 37.486 118.091 37.6041 118.091 37.7842V41.0082C118.091 41.4021 118.175 41.6778 118.341 41.8353C118.508 41.9816 118.763 42.0547 119.108 42.0547H120.424C120.735 42.0547 121.008 42.0322 121.241 41.9872C121.474 41.9422 121.674 41.8578 121.841 41.734C122.03 41.599 122.196 41.4246 122.341 41.2108C122.485 40.9969 122.635 40.7325 122.791 40.4174C122.835 40.3499 122.879 40.2993 122.924 40.2655C122.968 40.2205 123.018 40.2036 123.074 40.2149C123.141 40.2149 123.185 40.243 123.207 40.2993C123.241 40.3443 123.257 40.4062 123.257 40.4849C123.257 40.6087 123.229 40.7944 123.174 41.042C123.118 41.2895 123.046 41.5483 122.957 41.8184C122.88 42.0885 122.807 42.3192 122.741 42.5105C122.707 42.5893 122.668 42.6512 122.624 42.6962C122.58 42.7524 122.524 42.7806 122.457 42.7806C122.057 42.7806 121.641 42.7749 121.208 42.7637C120.774 42.7524 120.33 42.7412 119.874 42.7299C119.419 42.7187 118.963 42.7074 118.508 42.6962C118.052 42.6849 117.603 42.6793 117.158 42.6793C116.925 42.6793 116.703 42.6849 116.492 42.6962C116.281 42.7187 116.064 42.7356 115.842 42.7468C115.631 42.7693 115.386 42.7806 115.108 42.7806Z" fill="#E6ECED"/>
</svg>
