<svg width="129" height="44" viewBox="0 0 129 44" fill="none" xmlns="http://www.w3.org/2000/svg">
<path d="M15.9515 18.113C15.3421 18.113 14.7919 18.0444 14.301 17.9072C13.827 17.7872 13.3953 17.5986 13.0059 17.3414C12.6335 17.0842 12.2949 16.7669 11.9902 16.3897C11.6009 15.8752 11.22 15.378 10.8475 14.8978C10.492 14.4177 10.1196 13.8776 9.73025 13.2774C9.34089 12.6601 8.88382 11.9142 8.35903 11.0396C8.13896 10.6109 7.82578 10.2937 7.41949 10.0879C7.13171 9.93361 6.83546 9.83072 6.53074 9.77928C6.24296 9.71069 6.00595 9.66782 5.81974 9.65067C5.70124 9.65067 5.60813 9.70211 5.54042 9.805C5.48963 9.89074 5.46424 10.0108 5.46424 10.1651V14.8207C5.46424 15.3694 5.59967 15.8238 5.87053 16.1839C6.14138 16.5269 6.60692 16.7584 7.26714 16.8784C7.50414 16.9298 7.68189 16.9898 7.80039 17.0584C7.93582 17.127 8.00353 17.2299 8.00353 17.3671C8.00353 17.47 7.94428 17.5471 7.82578 17.5986C7.70728 17.65 7.54646 17.6757 7.34332 17.6757C6.9201 17.6757 6.53921 17.6586 6.20063 17.6243C5.87899 17.6072 5.56581 17.59 5.2611 17.5729C4.97331 17.5386 4.66859 17.5214 4.34695 17.5214C3.94066 17.5214 3.55131 17.5386 3.17888 17.5729C2.82338 17.59 2.45941 17.6072 2.08698 17.6243C1.73148 17.6586 1.33366 17.6757 0.893513 17.6757C0.707299 17.6757 0.546477 17.65 0.411048 17.5986C0.292548 17.5643 0.233297 17.4871 0.233297 17.3671C0.233297 17.1442 0.478762 16.9813 0.969692 16.8784C1.61298 16.7584 2.07005 16.5697 2.34091 16.3125C2.6287 16.0553 2.77259 15.6266 2.77259 15.0264V3.86335C2.77259 3.28034 2.73873 2.84307 2.67102 2.55156C2.6033 2.24291 2.45941 2.02856 2.23934 1.90853C2.03619 1.77135 1.70609 1.66846 1.24901 1.59987C0.978156 1.56558 0.783477 1.50556 0.664977 1.41982C0.546477 1.31694 0.487227 1.20548 0.487227 1.08544C0.487227 0.982558 0.546477 0.905393 0.664977 0.85395C0.800406 0.78536 0.961228 0.751064 1.14744 0.751064C1.63837 0.751064 2.01927 0.759638 2.29012 0.776786C2.56098 0.793934 2.81491 0.811082 3.05191 0.828229C3.30584 0.828229 3.61902 0.828229 3.99145 0.828229C4.33002 0.828229 4.63474 0.819656 4.90559 0.802508C5.17645 0.768212 5.48117 0.742491 5.81974 0.725343C6.15831 0.691049 6.58999 0.673901 7.11478 0.673901C9.01078 0.673901 10.4582 1.02543 11.457 1.72848C12.4727 2.41438 12.9805 3.46039 12.9805 4.86649C12.9805 5.63813 12.8197 6.29831 12.4981 6.84704C12.1934 7.39576 11.804 7.85017 11.33 8.21027C10.856 8.57037 10.382 8.85331 9.908 9.05908C9.84029 9.07623 9.80643 9.1191 9.80643 9.18769C9.82336 9.23913 9.84875 9.30772 9.88261 9.39346C10.4074 10.1822 10.9068 10.9367 11.3808 11.6569C11.8717 12.36 12.388 13.0459 12.9298 13.7147C13.4884 14.3663 14.1232 15.0264 14.8342 15.6952C15.3082 16.141 15.7992 16.4068 16.307 16.4926C16.8318 16.5783 17.3904 16.6212 17.9829 16.6212C18.2369 16.6212 18.3638 16.7412 18.3638 16.9813C18.3638 17.2728 18.2284 17.4957 17.9576 17.65C17.7036 17.8215 17.3904 17.9415 17.018 18.0101C16.6456 18.0787 16.2901 18.113 15.9515 18.113ZM6.6831 8.98191C7.41103 8.98191 8.02892 8.81901 8.53678 8.49321C9.06157 8.15026 9.45939 7.70442 9.73025 7.15569C10.018 6.58982 10.1619 5.98108 10.1619 5.32947C10.1619 4.59213 10.0688 3.94052 9.88261 3.37465C9.69639 2.80878 9.35782 2.37151 8.86689 2.06286C8.37596 1.73705 7.67342 1.57415 6.75928 1.57415C6.28528 1.57415 5.96363 1.74563 5.79435 2.08858C5.62506 2.41438 5.53195 3.04027 5.51503 3.96624C5.4981 4.37778 5.48117 4.92651 5.46424 5.61241C5.46424 6.29831 5.46424 7.11283 5.46424 8.05594C5.46424 8.46749 5.57428 8.7247 5.79435 8.82759C6.01442 8.93047 6.31067 8.98191 6.6831 8.98191Z" fill="#E6ECED"/>
<path d="M25.2064 17.6757C25.0202 17.6757 24.8594 17.65 24.724 17.5986C24.6055 17.5643 24.5462 17.4871 24.5462 17.3671C24.5462 17.1442 24.7917 16.9813 25.2826 16.8784C25.9259 16.7584 26.3999 16.5697 26.7046 16.3125C27.0093 16.0553 27.1617 15.6352 27.1617 15.0522V3.42609C27.1617 2.84307 27.0432 2.43153 26.8062 2.19146C26.5692 1.93425 26.129 1.73705 25.4858 1.59987C24.9948 1.49699 24.7494 1.32551 24.7494 1.08544C24.7494 0.96541 24.8086 0.879672 24.9271 0.828229C25.0456 0.776786 25.198 0.751064 25.3842 0.751064C25.8243 0.751064 26.2137 0.759638 26.5523 0.776786C26.9078 0.793934 27.2463 0.811082 27.568 0.828229C27.8896 0.845377 28.2367 0.85395 28.6091 0.85395C28.9646 0.85395 29.2947 0.85395 29.5994 0.85395C29.9211 0.836803 30.2427 0.819656 30.5643 0.802508C30.9029 0.78536 31.2838 0.776786 31.707 0.776786C31.9102 0.776786 32.071 0.802507 32.1895 0.85395C32.308 0.888246 32.3672 0.96541 32.3672 1.08544C32.3672 1.22262 32.2995 1.33408 32.1641 1.41982C32.0456 1.48841 31.8678 1.54843 31.6308 1.59987C30.9706 1.7542 30.5051 1.9514 30.2342 2.19146C29.9803 2.43153 29.8533 2.84307 29.8533 3.42609V15.0522C29.8533 15.618 30.0142 16.0296 30.3358 16.2868C30.6575 16.544 31.1315 16.7412 31.7578 16.8784C32.0117 16.9298 32.198 16.9898 32.3165 17.0584C32.435 17.127 32.4942 17.2299 32.4942 17.3671C32.4942 17.47 32.435 17.5471 32.3165 17.5986C32.2149 17.65 32.0625 17.6757 31.8594 17.6757C31.4362 17.6757 31.0468 17.6586 30.6913 17.6243C30.3358 17.6072 29.9888 17.59 29.6502 17.5729C29.3286 17.5557 28.9815 17.5471 28.6091 17.5471C28.2028 17.5471 27.8219 17.5557 27.4664 17.5729C27.1278 17.59 26.7723 17.6072 26.3999 17.6243C26.0275 17.6586 25.6297 17.6757 25.2064 17.6757Z" fill="#E6ECED"/>
<path d="M40.1795 17.6757C39.9933 17.6757 39.841 17.6415 39.7225 17.5729C39.604 17.5214 39.5447 17.4443 39.5447 17.3414C39.5447 17.1356 39.7817 16.9813 40.2557 16.8784C40.8821 16.7584 41.2968 16.5697 41.5 16.3125C41.7031 16.0553 41.8047 15.6352 41.8047 15.0522V3.40037C41.8047 2.81735 41.7285 2.40581 41.5761 2.16574C41.4238 1.92568 41.0344 1.73705 40.4081 1.59987C39.9171 1.49699 39.6717 1.33408 39.6717 1.11116C39.6717 1.00828 39.7225 0.922541 39.824 0.85395C39.9425 0.78536 40.1034 0.751064 40.3065 0.751064C40.7466 0.751064 41.1191 0.759638 41.4238 0.776786C41.7285 0.793934 42.0163 0.811082 42.2871 0.828229C42.5749 0.845377 42.8881 0.85395 43.2267 0.85395C43.5822 0.85395 43.9038 0.85395 44.1916 0.85395C44.4963 0.836803 44.8095 0.819656 45.1312 0.802508C45.4697 0.78536 45.8506 0.776786 46.2738 0.776786C46.714 0.776786 46.9341 0.888245 46.9341 1.11116C46.9341 1.24835 46.8663 1.35123 46.7309 1.41982C46.6124 1.48841 46.4347 1.54843 46.1977 1.59987C45.5544 1.7542 45.1058 1.96854 44.8518 2.24291C44.6148 2.51727 44.4963 2.90309 44.4963 3.40037V8.31316C44.4963 8.43319 44.5302 8.51035 44.5979 8.54465C44.6825 8.57895 44.7672 8.59609 44.8518 8.59609H53.3331C53.4854 8.59609 53.5616 8.48463 53.5616 8.26171V3.40037C53.5616 2.92024 53.4431 2.54299 53.2061 2.26863C52.986 1.97712 52.5459 1.7542 51.8857 1.59987C51.6317 1.54843 51.4455 1.48841 51.327 1.41982C51.2085 1.35123 51.1493 1.24835 51.1493 1.11116C51.1493 0.888245 51.3609 0.776786 51.7841 0.776786C52.2073 0.776786 52.5967 0.78536 52.9522 0.802508C53.3077 0.819656 53.6462 0.836803 53.9679 0.85395C54.3065 0.85395 54.6535 0.85395 55.009 0.85395C55.3306 0.85395 55.61 0.845377 55.847 0.828229C56.1009 0.811082 56.3633 0.793934 56.6341 0.776786C56.9219 0.759638 57.2859 0.751064 57.726 0.751064C57.9292 0.751064 58.09 0.78536 58.2085 0.85395C58.327 0.922541 58.3863 1.00828 58.3863 1.11116C58.3863 1.33408 58.1408 1.49699 57.6499 1.59987C57.0235 1.73705 56.6341 1.94282 56.4818 2.21719C56.3294 2.4744 56.2533 2.86022 56.2533 3.37465V15.0264C56.2533 15.6266 56.3379 16.0553 56.5072 16.3125C56.6934 16.5697 57.0912 16.7584 57.7007 16.8784C58.1747 16.9813 58.4117 17.1356 58.4117 17.3414C58.4117 17.4443 58.3439 17.5214 58.2085 17.5729C58.09 17.6415 57.9376 17.6757 57.7514 17.6757C57.3451 17.6757 56.9812 17.6586 56.6595 17.6243C56.3548 17.6072 56.0586 17.59 55.7708 17.5729C55.483 17.5557 55.1698 17.5471 54.8312 17.5471C54.4757 17.5471 54.1456 17.5557 53.8409 17.5729C53.5531 17.59 53.24 17.6072 52.9014 17.6243C52.5628 17.6586 52.1819 17.6757 51.7587 17.6757C51.5556 17.6757 51.3947 17.6415 51.2762 17.5729C51.1747 17.5214 51.1239 17.4443 51.1239 17.3414C51.1239 17.2042 51.1747 17.1099 51.2762 17.0584C51.3947 16.9898 51.581 16.9298 51.8349 16.8784C52.4105 16.7584 52.8421 16.5612 53.1299 16.2868C53.4177 16.0124 53.5616 15.6095 53.5616 15.0779V10.1137C53.5616 10.0108 53.5531 9.92503 53.5362 9.85644C53.5193 9.7707 53.46 9.72784 53.3585 9.72784H44.6995C44.564 9.72784 44.4963 9.83072 44.4963 10.0365V14.8978C44.4963 15.4123 44.6656 15.841 45.0042 16.1839C45.3428 16.5269 45.8083 16.7584 46.4008 16.8784C46.6547 16.9298 46.8409 16.9898 46.9594 17.0584C47.0779 17.1099 47.1372 17.2042 47.1372 17.3414C47.1372 17.4443 47.0779 17.5214 46.9594 17.5729C46.8409 17.6415 46.6801 17.6757 46.477 17.6757C46.0538 17.6757 45.6644 17.6586 45.3089 17.6243C44.9534 17.6072 44.6064 17.59 44.2678 17.5729C43.9462 17.5557 43.5991 17.5471 43.2267 17.5471C42.8881 17.5471 42.5665 17.5557 42.2618 17.5729C41.957 17.59 41.6354 17.6072 41.2968 17.6243C40.9752 17.6586 40.6028 17.6757 40.1795 17.6757Z" fill="#E6ECED"/>
<path d="M66.3505 17.7015C66.1643 17.7015 66.0119 17.6672 65.8934 17.5986C65.7749 17.53 65.7157 17.4528 65.7157 17.3671C65.7157 17.2299 65.7834 17.127 65.9188 17.0584C66.0543 16.9727 66.1643 16.9213 66.2489 16.9041C66.8922 16.7498 67.3662 16.5526 67.6709 16.3125C67.9926 16.0724 68.1534 15.6695 68.1534 15.1036V3.24604C68.1534 2.8345 68.1111 2.53442 68.0264 2.34579C67.9418 2.14002 67.781 1.98569 67.544 1.88281C67.3239 1.77992 67.0023 1.68561 66.579 1.59987C66.0881 1.49699 65.8427 1.32551 65.8427 1.08544C65.8427 0.96541 65.9019 0.879672 66.0204 0.828229C66.1558 0.776786 66.3167 0.751064 66.5029 0.751064C66.9261 0.751064 67.307 0.759638 67.6455 0.776786C67.9841 0.793934 68.3058 0.811082 68.6105 0.828229C68.9152 0.845377 69.2538 0.85395 69.6262 0.85395C70.0156 0.85395 70.388 0.85395 70.7435 0.85395C71.099 0.836803 71.463 0.819656 71.8354 0.802508C72.2078 0.78536 72.6056 0.776786 73.0288 0.776786C73.232 0.776786 73.3844 0.802507 73.4859 0.85395C73.6044 0.888246 73.6637 0.96541 73.6637 1.08544C73.6637 1.22262 73.6044 1.33408 73.4859 1.41982C73.3674 1.48841 73.1812 1.54843 72.9273 1.59987C72.284 1.7542 71.7761 1.92568 71.4037 2.1143C71.0313 2.28578 70.8451 2.62015 70.8451 3.11743V15.0264C70.8451 15.558 70.9551 15.9438 71.1752 16.1839C71.4122 16.4068 71.8862 16.5183 72.5972 16.5183H75.5427C75.9829 16.5183 76.3638 16.4497 76.6854 16.3125C77.024 16.1753 77.2864 16.021 77.4726 15.8495C77.7943 15.558 78.0397 15.2837 78.209 15.0264C78.3952 14.7521 78.5899 14.392 78.793 13.9461C78.8777 13.7575 78.9708 13.5775 79.0724 13.406C79.1739 13.2345 79.284 13.1488 79.4025 13.1488C79.521 13.1488 79.6056 13.2088 79.6564 13.3288C79.7072 13.4317 79.7326 13.5346 79.7326 13.6375C79.7326 13.6718 79.7241 13.7147 79.7072 13.7661C79.6903 13.8175 79.6818 13.869 79.6818 13.9204C79.5633 14.3834 79.4533 14.795 79.3517 15.1551C79.2501 15.5152 79.1655 15.8581 79.0978 16.1839C79.047 16.5097 79.0046 16.8612 78.9708 17.2385C78.9539 17.3585 78.92 17.47 78.8692 17.5729C78.8184 17.6586 78.7253 17.7015 78.5899 17.7015C77.9297 17.7015 77.2271 17.6929 76.4823 17.6757C75.7374 17.6586 74.9841 17.6415 74.2223 17.6243C73.4605 17.6243 72.7072 17.6157 71.9623 17.5986C71.2344 17.5814 70.5319 17.5729 69.8547 17.5729C69.4484 17.5729 68.9914 17.5814 68.4835 17.5986C67.9926 17.6157 67.5355 17.6329 67.1123 17.65C66.706 17.6843 66.4521 17.7015 66.3505 17.7015Z" fill="#E6ECED"/>
<path d="M86.4099 17.7015C86.2068 17.7015 86.0375 17.6672 85.9021 17.5986C85.7666 17.5471 85.6989 17.4614 85.6989 17.3414C85.6989 17.2042 85.7666 17.0927 85.9021 17.007C86.0375 16.9213 86.2237 16.8355 86.4607 16.7498C86.9178 16.6126 87.3325 16.4068 87.705 16.1325C88.0774 15.8581 88.3821 15.438 88.6191 14.8721C89.0762 13.8261 89.4994 12.8316 89.8888 11.8884C90.2781 10.9282 90.6505 9.98505 91.006 9.05908C91.3615 8.13311 91.7255 7.18142 92.0979 6.204C92.4704 5.20944 92.8513 4.15486 93.2406 3.04027C93.393 2.64588 93.503 2.32007 93.5707 2.06286C93.6384 1.78849 93.6808 1.54843 93.6977 1.34266C93.9178 1.29121 94.1209 1.23977 94.3071 1.18833C94.4933 1.11974 94.6965 1.02543 94.9165 0.905394C95.1197 0.802508 95.2721 0.656753 95.3736 0.46813C95.4921 0.262358 95.5852 0.116603 95.6529 0.0308652C95.6868 0.0137178 95.7207 0.00514415 95.7545 0.00514415C95.8053 -0.0120032 95.8476 0.0137184 95.8815 0.0823089C95.9323 0.168047 95.9661 0.262358 95.9831 0.365244C96.0169 0.468129 96.0508 0.579589 96.0846 0.699622C96.474 1.9514 96.8718 3.22889 97.2781 4.53211C97.7013 5.81818 98.1161 7.07853 98.5224 8.31316C98.9286 9.54778 99.3095 10.6967 99.665 11.7598C100.021 12.8058 100.325 13.7232 100.579 14.512C100.765 15.0779 100.985 15.5152 101.239 15.8238C101.493 16.1153 101.764 16.3382 102.052 16.4926C102.34 16.6297 102.653 16.7326 102.992 16.8012C103.245 16.8527 103.432 16.9298 103.55 17.0327C103.686 17.1356 103.753 17.2556 103.753 17.3928C103.753 17.4957 103.686 17.5643 103.55 17.5986C103.432 17.65 103.279 17.6757 103.093 17.6757C102.822 17.6757 102.467 17.6586 102.027 17.6243C101.586 17.6072 101.129 17.59 100.655 17.5729C100.181 17.5557 99.7497 17.5471 99.3603 17.5471C99.0387 17.5471 98.6832 17.5471 98.2938 17.5471C97.9045 17.5471 97.532 17.5557 97.1765 17.5729C96.838 17.59 96.5417 17.5986 96.2878 17.5986C96.0846 17.5986 95.9153 17.5729 95.7799 17.5214C95.6614 17.4528 95.6022 17.3671 95.6022 17.2642C95.6022 17.127 95.6783 17.0156 95.8307 16.9298C95.9831 16.8441 96.1608 16.7841 96.364 16.7498C96.9395 16.6469 97.3543 16.4926 97.6082 16.2868C97.8791 16.081 97.9891 15.8067 97.9383 15.4637C97.9214 15.1722 97.8621 14.8121 97.7606 14.3834C97.659 13.9376 97.5405 13.4746 97.4051 12.9945C97.2696 12.4972 97.1427 12.0428 97.0242 11.6312C96.9903 11.494 96.9311 11.4083 96.8464 11.374C96.7618 11.3397 96.6179 11.3226 96.4147 11.3226H91.717C91.6324 11.3226 91.5562 11.3569 91.4885 11.4254C91.4208 11.4769 91.3531 11.5884 91.2854 11.7598C91.2346 11.9656 91.1499 12.2314 91.0314 12.5572C90.9299 12.8658 90.8283 13.2002 90.7267 13.5603C90.6252 13.9033 90.532 14.2291 90.4474 14.5377C90.3797 14.8292 90.3374 15.0436 90.3204 15.1808C90.2696 15.6095 90.3712 15.9524 90.6252 16.2096C90.896 16.4497 91.2938 16.6383 91.8186 16.7755C92.3265 16.9127 92.5804 17.0842 92.5804 17.2899C92.5804 17.41 92.5127 17.4957 92.3773 17.5471C92.2588 17.5814 92.0979 17.5986 91.8948 17.5986C91.5732 17.5986 91.2007 17.59 90.7775 17.5729C90.3543 17.5557 89.9057 17.5471 89.4317 17.5471C88.89 17.5471 88.3652 17.5729 87.8573 17.6243C87.3495 17.6757 86.867 17.7015 86.4099 17.7015ZM92.428 10.268H96.1354C96.3724 10.268 96.4909 10.2251 96.4909 10.1394C96.4909 10.0879 96.4825 10.0451 96.4655 10.0108C96.4655 9.97648 96.4571 9.92503 96.4401 9.85644L94.5611 3.76047C94.4764 3.48611 94.4087 3.34893 94.3579 3.34893C94.3241 3.34893 94.2648 3.47753 94.1802 3.73475L91.971 9.85644C91.9371 9.95933 91.9202 10.0279 91.9202 10.0622C91.9202 10.148 91.9625 10.208 92.0472 10.2423C92.1487 10.2594 92.2757 10.268 92.428 10.268Z" fill="#E6ECED"/>
<path d="M110.768 17.6757C110.582 17.6757 110.429 17.6415 110.311 17.5729C110.192 17.5214 110.133 17.4443 110.133 17.3414C110.133 17.1356 110.37 16.9813 110.844 16.8784C111.47 16.7584 111.885 16.5697 112.088 16.3125C112.291 16.0553 112.393 15.6352 112.393 15.0522V3.40037C112.393 2.81735 112.317 2.40581 112.164 2.16574C112.012 1.92568 111.623 1.73705 110.996 1.59987C110.505 1.49699 110.26 1.33408 110.26 1.11116C110.26 1.00828 110.311 0.922541 110.412 0.85395C110.531 0.78536 110.692 0.751064 110.895 0.751064C111.335 0.751064 111.707 0.759638 112.012 0.776786C112.317 0.793934 112.605 0.811082 112.876 0.828229C113.163 0.845377 113.476 0.85395 113.815 0.85395C114.171 0.85395 114.492 0.85395 114.78 0.85395C115.085 0.836803 115.398 0.819656 115.72 0.802508C116.058 0.78536 116.439 0.776786 116.862 0.776786C117.302 0.776786 117.522 0.888245 117.522 1.11116C117.522 1.24835 117.455 1.35123 117.319 1.41982C117.201 1.48841 117.023 1.54843 116.786 1.59987C116.143 1.7542 115.694 1.96854 115.44 2.24291C115.203 2.51727 115.085 2.90309 115.085 3.40037V8.31316C115.085 8.43319 115.119 8.51035 115.186 8.54465C115.271 8.57895 115.356 8.59609 115.44 8.59609H123.921C124.074 8.59609 124.15 8.48463 124.15 8.26171V3.40037C124.15 2.92024 124.031 2.54299 123.794 2.26863C123.574 1.97712 123.134 1.7542 122.474 1.59987C122.22 1.54843 122.034 1.48841 121.915 1.41982C121.797 1.35123 121.738 1.24835 121.738 1.11116C121.738 0.888245 121.949 0.776786 122.372 0.776786C122.796 0.776786 123.185 0.78536 123.541 0.802508C123.896 0.819656 124.235 0.836803 124.556 0.85395C124.895 0.85395 125.242 0.85395 125.597 0.85395C125.919 0.85395 126.198 0.845377 126.435 0.828229C126.689 0.811082 126.952 0.793934 127.223 0.776786C127.51 0.759638 127.874 0.751064 128.314 0.751064C128.518 0.751064 128.678 0.78536 128.797 0.85395C128.915 0.922541 128.975 1.00828 128.975 1.11116C128.975 1.33408 128.729 1.49699 128.238 1.59987C127.612 1.73705 127.223 1.94282 127.07 2.21719C126.918 2.4744 126.842 2.86022 126.842 3.37465V15.0264C126.842 15.6266 126.926 16.0553 127.096 16.3125C127.282 16.5697 127.68 16.7584 128.289 16.8784C128.763 16.9813 129 17.1356 129 17.3414C129 17.4443 128.932 17.5214 128.797 17.5729C128.678 17.6415 128.526 17.6757 128.34 17.6757C127.933 17.6757 127.57 17.6586 127.248 17.6243C126.943 17.6072 126.647 17.59 126.359 17.5729C126.071 17.5557 125.758 17.5471 125.42 17.5471C125.064 17.5471 124.734 17.5557 124.429 17.5729C124.141 17.59 123.828 17.6072 123.49 17.6243C123.151 17.6586 122.77 17.6757 122.347 17.6757C122.144 17.6757 121.983 17.6415 121.865 17.5729C121.763 17.5214 121.712 17.4443 121.712 17.3414C121.712 17.2042 121.763 17.1099 121.865 17.0584C121.983 16.9898 122.169 16.9298 122.423 16.8784C122.999 16.7584 123.43 16.5612 123.718 16.2868C124.006 16.0124 124.15 15.6095 124.15 15.0779V10.1137C124.15 10.0108 124.141 9.92503 124.125 9.85644C124.108 9.7707 124.048 9.72784 123.947 9.72784H115.288C115.152 9.72784 115.085 9.83072 115.085 10.0365V14.8978C115.085 15.4123 115.254 15.841 115.593 16.1839C115.931 16.5269 116.397 16.7584 116.989 16.8784C117.243 16.9298 117.429 16.9898 117.548 17.0584C117.666 17.1099 117.726 17.2042 117.726 17.3414C117.726 17.4443 117.666 17.5214 117.548 17.5729C117.429 17.6415 117.268 17.6757 117.065 17.6757C116.642 17.6757 116.253 17.6586 115.897 17.6243C115.542 17.6072 115.195 17.59 114.856 17.5729C114.535 17.5557 114.187 17.5471 113.815 17.5471C113.476 17.5471 113.155 17.5557 112.85 17.5729C112.545 17.59 112.224 17.6072 111.885 17.6243C111.564 17.6586 111.191 17.6757 110.768 17.6757Z" fill="#E6ECED"/>
<path d="M0.433267 43.7637C0.311063 43.7637 0.205524 43.7468 0.116649 43.713C0.0388829 43.6905 0 43.6399 0 43.5611C0 43.4148 0.161086 43.3079 0.483259 43.2404C0.905416 43.1616 1.21648 43.0379 1.41645 42.8691C1.61642 42.7003 1.7164 42.4246 1.7164 42.042V34.4123C1.7164 34.0297 1.63864 33.7597 1.48311 33.6021C1.32757 33.4333 1.03873 33.3039 0.616572 33.2139C0.294399 33.1464 0.133313 33.0338 0.133313 32.8763C0.133313 32.7975 0.172196 32.7413 0.249962 32.7075C0.327727 32.6737 0.427712 32.6569 0.549915 32.6569C0.83876 32.6569 1.09428 32.6625 1.31646 32.6737C1.54976 32.685 1.77195 32.6962 1.98303 32.7075C2.19411 32.7188 2.42185 32.7244 2.66626 32.7244C2.89955 32.7244 3.11619 32.7244 3.31616 32.7244C3.52724 32.7131 3.73831 32.7019 3.94939 32.6906C4.17158 32.6794 4.42154 32.6737 4.69928 32.6737C4.83259 32.6737 4.93813 32.6906 5.0159 32.7244C5.09366 32.7469 5.13254 32.7975 5.13254 32.8763C5.13254 32.9663 5.08811 33.0395 4.99923 33.0957C4.92147 33.1407 4.80482 33.1801 4.64928 33.2139C4.21602 33.3152 3.91051 33.4446 3.73276 33.6021C3.56612 33.7597 3.4828 34.0297 3.4828 34.4123V42.042C3.4828 42.4133 3.58834 42.6834 3.79942 42.8522C4.01049 43.021 4.32156 43.1504 4.73261 43.2404C4.89925 43.2742 5.02145 43.3136 5.09922 43.3586C5.17698 43.4036 5.21586 43.4711 5.21586 43.5611C5.21586 43.6286 5.17698 43.6793 5.09922 43.713C5.03256 43.7468 4.93257 43.7637 4.79926 43.7637C4.52153 43.7637 4.26601 43.7524 4.03271 43.7299C3.79942 43.7187 3.57167 43.7074 3.34948 43.6962C3.13841 43.6849 2.91066 43.6793 2.66626 43.6793C2.39963 43.6793 2.14967 43.6849 1.91637 43.6962C1.69418 43.7074 1.46089 43.7187 1.21648 43.7299C0.972073 43.7524 0.711002 43.7637 0.433267 43.7637Z" fill="#E6ECED"/>
<path d="M20.5244 44C20.4134 44 20.2023 43.91 19.8912 43.7299C19.5913 43.5611 19.2969 43.2798 19.008 42.8859C18.8858 42.7509 18.697 42.5371 18.4414 42.2445C18.197 41.9407 17.9026 41.5918 17.5582 41.198C17.225 40.8041 16.8639 40.3821 16.4751 39.932C16.0974 39.4819 15.7141 39.0374 15.3252 38.5985C14.9475 38.1484 14.5865 37.7264 14.2421 37.3325C13.9088 36.9387 13.6088 36.5898 13.3422 36.286C13.0867 35.9822 12.8923 35.7627 12.759 35.6277C12.7034 35.5489 12.6479 35.487 12.5923 35.442C12.5479 35.397 12.5035 35.3745 12.459 35.3745C12.4146 35.3745 12.3813 35.4195 12.359 35.5095C12.3368 35.5883 12.3257 35.6614 12.3257 35.729C12.3146 36.2691 12.309 36.8937 12.309 37.6026C12.309 38.3115 12.3035 39.043 12.2924 39.797C12.2924 40.5397 12.2924 41.2374 12.2924 41.89C12.2924 42.2164 12.3813 42.5033 12.559 42.7509C12.7368 42.9872 13.0367 43.1504 13.4589 43.2404C13.6144 43.2742 13.7366 43.3136 13.8255 43.3586C13.9255 43.4036 13.9755 43.4711 13.9755 43.5611C13.9755 43.6286 13.931 43.6793 13.8421 43.713C13.7533 43.7468 13.6422 43.7637 13.5089 43.7637C13.2089 43.7637 12.9756 43.7524 12.809 43.7299C12.6534 43.7187 12.509 43.7074 12.3757 43.6962C12.2424 43.6962 12.0646 43.6962 11.8424 43.6962C11.6314 43.6962 11.4481 43.7018 11.2925 43.713C11.1481 43.7243 11.0037 43.7355 10.8593 43.7468C10.7148 43.7581 10.5371 43.7637 10.326 43.7637C10.2038 43.7637 10.0927 43.7468 9.99273 43.713C9.90386 43.6905 9.85942 43.6399 9.85942 43.5611C9.85942 43.4824 9.90386 43.4205 9.99273 43.3755C10.0816 43.3192 10.2094 43.2685 10.376 43.2235C10.676 43.1335 10.8981 42.9703 11.0426 42.734C11.187 42.4865 11.2703 42.1939 11.2925 41.8563C11.337 41.4287 11.3814 40.866 11.4258 40.1683C11.4814 39.4706 11.5258 38.6885 11.5592 37.822C11.5925 36.9555 11.6092 36.0609 11.6092 35.1382C11.6092 34.5418 11.4592 34.1141 11.1592 33.8553C10.8593 33.5965 10.476 33.3883 10.0094 33.2308C9.95385 33.2083 9.85387 33.1632 9.70944 33.0957C9.57613 33.0282 9.50947 32.9438 9.50947 32.8425C9.50947 32.7413 9.55947 32.6737 9.65945 32.64C9.75944 32.6062 9.84276 32.5893 9.90941 32.5893C10.1983 32.6006 10.4482 32.6118 10.6593 32.6231C10.8815 32.6231 11.0926 32.6287 11.2925 32.64C11.4925 32.6512 11.7036 32.6625 11.9258 32.6737C12.148 32.6737 12.409 32.6737 12.709 32.6737C12.809 32.6737 12.8867 32.7019 12.9423 32.7581C12.9978 32.8032 13.0478 32.8594 13.0923 32.9269C13.2145 33.0732 13.4033 33.3039 13.6588 33.619C13.9255 33.9341 14.231 34.3054 14.5754 34.7331C14.9309 35.1607 15.3086 35.6164 15.7085 36.1003C16.1085 36.5729 16.5084 37.0512 16.9083 37.5351C17.3083 38.019 17.686 38.4747 18.0415 38.9023C18.397 39.33 18.7025 39.7013 18.958 40.0164C19.2246 40.3202 19.4135 40.5397 19.5246 40.6747C19.569 40.7197 19.6246 40.7816 19.6912 40.8604C19.769 40.9392 19.8357 40.9785 19.8912 40.9785C19.9912 40.9785 20.0467 40.8716 20.0579 40.6578C20.0579 40.4328 20.0579 40.0952 20.0579 39.645C20.0579 39.1949 20.0579 38.6716 20.0579 38.0752C20.069 37.4788 20.0745 36.8543 20.0745 36.2016C20.0745 35.5377 20.069 34.8793 20.0579 34.2267C20.0467 33.9791 19.9301 33.7709 19.7079 33.6021C19.4857 33.4221 19.2469 33.3039 18.9914 33.2476C18.8358 33.2251 18.6914 33.1858 18.5581 33.1295C18.4248 33.0732 18.3581 33.0001 18.3581 32.9101C18.3581 32.8425 18.4248 32.7919 18.5581 32.7581C18.6914 32.7244 18.8192 32.7075 18.9414 32.7075C19.108 32.7075 19.2524 32.7075 19.3746 32.7075C19.5079 32.7075 19.6357 32.7075 19.7579 32.7075C19.8801 32.7075 20.0023 32.7075 20.1245 32.7075C20.38 32.7075 20.5856 32.7075 20.7411 32.7075C20.8966 32.6962 21.0633 32.685 21.241 32.6737C21.4299 32.6625 21.6854 32.6569 22.0076 32.6569C22.1409 32.6569 22.2464 32.6737 22.3242 32.7075C22.413 32.7413 22.4575 32.7975 22.4575 32.8763C22.4575 33.0338 22.2853 33.1464 21.9409 33.2139C21.541 33.2927 21.2688 33.3996 21.1244 33.5346C20.9799 33.6584 20.9022 33.8666 20.8911 34.1591C20.8911 34.3392 20.8855 34.6374 20.8744 35.0538C20.8633 35.4589 20.8522 35.9371 20.8411 36.4885C20.8411 37.0399 20.8355 37.6195 20.8244 38.2271C20.8133 38.8348 20.8077 39.4312 20.8077 40.0164C20.8077 40.6016 20.8077 41.1305 20.8077 41.6031C20.8077 41.8732 20.8188 42.1376 20.8411 42.3964C20.8633 42.644 20.8799 42.8634 20.8911 43.0547C20.9133 43.2348 20.9244 43.3698 20.9244 43.4598C20.9244 43.6737 20.8855 43.8143 20.8077 43.8818C20.73 43.9606 20.6355 44 20.5244 44Z" fill="#E6ECED"/>
<path d="M29.9372 43.9494C29.4706 43.9494 29.0318 43.8818 28.6207 43.7468C28.2097 43.623 27.832 43.4317 27.4876 43.1729C27.4431 43.1279 27.3931 43.0772 27.3376 43.021C27.2932 42.9535 27.2598 42.8859 27.2376 42.8184C27.1598 42.5596 27.1043 42.2389 27.071 41.8563C27.0487 41.4624 27.0321 41.1136 27.021 40.8097C27.021 40.731 27.0543 40.6747 27.121 40.6409C27.1876 40.5959 27.2654 40.5734 27.3543 40.5734C27.432 40.5734 27.4931 40.5903 27.5376 40.6241C27.5931 40.6466 27.632 40.6972 27.6542 40.776C27.8875 41.6312 28.2319 42.2726 28.6874 42.7003C29.1429 43.1166 29.6372 43.3248 30.1705 43.3248C30.5482 43.3248 30.8704 43.2404 31.137 43.0716C31.4147 42.9028 31.6314 42.6778 31.7869 42.3964C31.9424 42.1038 32.0202 41.7775 32.0202 41.4174C32.0202 40.9898 31.948 40.6409 31.8036 40.3709C31.6591 40.1008 31.4481 39.8588 31.1703 39.645C30.8926 39.4312 30.5482 39.2005 30.1372 38.953C29.6928 38.6829 29.254 38.4016 28.8207 38.109C28.3985 37.8164 28.0486 37.4732 27.7709 37.0793C27.4931 36.6855 27.3543 36.2016 27.3543 35.6277C27.3543 35.02 27.4931 34.4855 27.7709 34.0241C28.0597 33.5515 28.4763 33.1801 29.0207 32.9101C29.565 32.6287 30.2205 32.4881 30.987 32.4881C31.387 32.4881 31.748 32.5331 32.0702 32.6231C32.4035 32.7019 32.6701 32.7863 32.8701 32.8763C32.9701 32.9101 33.0478 32.9663 33.1034 33.0451C33.17 33.1239 33.22 33.2195 33.2533 33.332C33.3089 33.5684 33.37 33.8441 33.4367 34.1591C33.5033 34.4742 33.5366 34.7949 33.5366 35.1213C33.5366 35.2451 33.4478 35.307 33.27 35.307C33.17 35.307 33.0756 35.2845 32.9867 35.2394C32.8978 35.1944 32.8423 35.1382 32.8201 35.0707C32.5979 34.4405 32.3202 33.9622 31.9869 33.6359C31.6647 33.3095 31.2537 33.1464 30.7537 33.1464C30.4205 33.1464 30.1149 33.2083 29.8372 33.332C29.5706 33.4446 29.354 33.6359 29.1873 33.906C29.0318 34.1648 28.954 34.508 28.954 34.9356C28.954 35.2394 29.054 35.5264 29.254 35.7965C29.465 36.0553 29.7428 36.3085 30.0872 36.5561C30.4427 36.7924 30.8371 37.0399 31.2703 37.2988C31.7258 37.5801 32.1369 37.8727 32.5035 38.1765C32.8701 38.4803 33.1589 38.8292 33.37 39.223C33.5811 39.6057 33.6866 40.067 33.6866 40.6072C33.6866 41.3161 33.5311 41.9238 33.22 42.4302C32.909 42.9253 32.4701 43.3023 31.9036 43.5611C31.3481 43.8199 30.6926 43.9494 29.9372 43.9494Z" fill="#E6ECED"/>
<path d="M41.7122 43.7637C41.59 43.7637 41.4845 43.7468 41.3956 43.713C41.3067 43.6905 41.2623 43.6399 41.2623 43.5611C41.2623 43.4824 41.3067 43.4205 41.3956 43.3755C41.4845 43.3192 41.6067 43.2742 41.7622 43.2404C42.1844 43.1616 42.501 43.0322 42.712 42.8522C42.9231 42.6721 43.0287 42.3852 43.0287 41.9913V35.307C43.0287 34.8118 43.0176 34.4405 42.9953 34.1929C42.9731 33.9341 42.9398 33.7597 42.8954 33.6696C42.8509 33.5684 42.7898 33.5065 42.712 33.484C42.5787 33.4502 42.4288 33.4333 42.2621 33.4333C42.0955 33.4221 41.9011 33.4164 41.6789 33.4164H41.029C40.7401 33.4164 40.4513 33.484 40.1624 33.619C39.8847 33.7428 39.6736 33.9228 39.5292 34.1591C39.4848 34.2267 39.4181 34.3223 39.3292 34.4461C39.2515 34.5586 39.1626 34.6599 39.0626 34.7499C38.9626 34.8287 38.8626 34.8681 38.7627 34.8681C38.7071 34.8681 38.6627 34.8456 38.6293 34.8006C38.6071 34.7556 38.596 34.6993 38.596 34.6318C38.596 34.508 38.6293 34.3842 38.696 34.2604C38.8737 33.9003 39.0015 33.5852 39.0793 33.3152C39.157 33.0451 39.2181 32.7244 39.2626 32.353C39.2848 32.173 39.3292 32.0604 39.3959 32.0154C39.4625 31.9704 39.5292 31.9479 39.5959 31.9479C39.6514 31.9479 39.7236 32.0211 39.8125 32.1673C39.9125 32.3024 39.9902 32.4149 40.0458 32.5049C40.1347 32.6062 40.3013 32.685 40.5457 32.7413C40.7901 32.7975 41.0179 32.8257 41.2289 32.8257L47.2447 32.8088C47.5891 32.8088 47.8724 32.7863 48.0946 32.7413C48.3279 32.6962 48.5167 32.64 48.6611 32.5725C48.8167 32.4937 48.9389 32.4093 49.0277 32.3193C49.1166 32.218 49.2333 32.1673 49.3777 32.1673C49.4221 32.1673 49.4555 32.2067 49.4777 32.2855C49.4999 32.353 49.511 32.4318 49.511 32.5218C49.511 32.5668 49.5054 32.6343 49.4943 32.7244C49.4832 32.8144 49.4721 32.8875 49.461 32.9438C49.4166 33.1576 49.3721 33.3264 49.3277 33.4502C49.2944 33.574 49.2666 33.6921 49.2444 33.8047C49.2333 33.906 49.2277 34.041 49.2277 34.2098V34.4461C49.2277 34.5811 49.2055 34.7105 49.1611 34.8343C49.1166 34.9581 49.05 35.02 48.9611 35.02C48.8722 35.02 48.8 34.9637 48.7445 34.8512C48.6889 34.7274 48.6334 34.553 48.5778 34.3279C48.5112 34.0354 48.3612 33.8103 48.1279 33.6528C47.9057 33.4952 47.5335 33.4164 47.0114 33.4164H45.6116C45.3894 33.4164 45.2172 33.4558 45.095 33.5346C44.9728 33.6021 44.8895 33.7709 44.8451 34.041C44.8117 34.2998 44.7951 34.7218 44.7951 35.307V41.9913C44.7951 42.3739 44.9006 42.6553 45.1117 42.8353C45.3339 43.0154 45.656 43.1504 46.0782 43.2404C46.2337 43.2742 46.3504 43.3136 46.4281 43.3586C46.517 43.4036 46.5615 43.4711 46.5615 43.5611C46.5615 43.6286 46.5226 43.6793 46.4448 43.713C46.367 43.7468 46.2615 43.7637 46.1282 43.7637C45.8505 43.7637 45.5949 43.7524 45.3616 43.7299C45.1283 43.7187 44.9006 43.7074 44.6784 43.6962C44.4562 43.6849 44.2229 43.6793 43.9785 43.6793C43.7119 43.6793 43.4619 43.6849 43.2286 43.6962C42.9953 43.7074 42.7565 43.7187 42.5121 43.7299C42.2677 43.7524 42.001 43.7637 41.7122 43.7637Z" fill="#E6ECED"/>
<path d="M54.0722 43.7637C53.9499 43.7637 53.8444 43.7468 53.7555 43.713C53.6778 43.6905 53.6389 43.6399 53.6389 43.5611C53.6389 43.4148 53.8 43.3079 54.1221 43.2404C54.5443 43.1616 54.8554 43.0379 55.0553 42.8691C55.2553 42.7003 55.3553 42.4246 55.3553 42.042V34.4123C55.3553 34.0297 55.2775 33.7597 55.122 33.6021C54.9665 33.4333 54.6776 33.3039 54.2555 33.2139C53.9333 33.1464 53.7722 33.0338 53.7722 32.8763C53.7722 32.7975 53.8111 32.7413 53.8888 32.7075C53.9666 32.6737 54.0666 32.6569 54.1888 32.6569C54.4776 32.6569 54.7332 32.6625 54.9553 32.6737C55.1886 32.685 55.4108 32.6962 55.6219 32.7075C55.833 32.7188 56.0607 32.7244 56.3051 32.7244C56.5384 32.7244 56.7551 32.7244 56.955 32.7244C57.1661 32.7131 57.3772 32.7019 57.5883 32.6906C57.8105 32.6794 58.0604 32.6737 58.3382 32.6737C58.4715 32.6737 58.577 32.6906 58.6548 32.7244C58.7325 32.7469 58.7714 32.7975 58.7714 32.8763C58.7714 32.9663 58.727 33.0395 58.6381 33.0957C58.5604 33.1407 58.4437 33.1801 58.2882 33.2139C57.8549 33.3152 57.5494 33.4446 57.3716 33.6021C57.205 33.7597 57.1217 34.0297 57.1217 34.4123V42.042C57.1217 42.4133 57.2272 42.6834 57.4383 42.8522C57.6494 43.021 57.9604 43.1504 58.3715 43.2404C58.5381 43.2742 58.6603 43.3136 58.7381 43.3586C58.8159 43.4036 58.8547 43.4711 58.8547 43.5611C58.8547 43.6286 58.8159 43.6793 58.7381 43.713C58.6714 43.7468 58.5715 43.7637 58.4381 43.7637C58.1604 43.7637 57.9049 43.7524 57.6716 43.7299C57.4383 43.7187 57.2106 43.7074 56.9884 43.6962C56.7773 43.6849 56.5495 43.6793 56.3051 43.6793C56.0385 43.6793 55.7886 43.6849 55.5553 43.6962C55.3331 43.7074 55.0998 43.7187 54.8554 43.7299C54.611 43.7524 54.3499 43.7637 54.0722 43.7637Z" fill="#E6ECED"/>
<path d="M66.4812 43.7637C66.359 43.7637 66.2534 43.7468 66.1646 43.713C66.0757 43.6905 66.0312 43.6399 66.0312 43.5611C66.0312 43.4824 66.0757 43.4205 66.1646 43.3755C66.2534 43.3192 66.3756 43.2742 66.5312 43.2404C66.9533 43.1616 67.27 43.0322 67.481 42.8522C67.6921 42.6721 67.7976 42.3852 67.7976 41.9913V35.307C67.7976 34.8118 67.7865 34.4405 67.7643 34.1929C67.7421 33.9341 67.7088 33.7597 67.6643 33.6696C67.6199 33.5684 67.5588 33.5065 67.481 33.484C67.3477 33.4502 67.1977 33.4333 67.0311 33.4333C66.8645 33.4221 66.67 33.4164 66.4479 33.4164H65.798C65.5091 33.4164 65.2203 33.484 64.9314 33.619C64.6537 33.7428 64.4426 33.9228 64.2982 34.1591C64.2537 34.2267 64.1871 34.3223 64.0982 34.4461C64.0205 34.5586 63.9316 34.6599 63.8316 34.7499C63.7316 34.8287 63.6316 34.8681 63.5316 34.8681C63.4761 34.8681 63.4316 34.8456 63.3983 34.8006C63.3761 34.7556 63.365 34.6993 63.365 34.6318C63.365 34.508 63.3983 34.3842 63.465 34.2604C63.6427 33.9003 63.7705 33.5852 63.8483 33.3152C63.926 33.0451 63.9871 32.7244 64.0316 32.353C64.0538 32.173 64.0982 32.0604 64.1649 32.0154C64.2315 31.9704 64.2982 31.9479 64.3648 31.9479C64.4204 31.9479 64.4926 32.0211 64.5815 32.1673C64.6815 32.3024 64.7592 32.4149 64.8148 32.5049C64.9036 32.6062 65.0703 32.685 65.3147 32.7413C65.5591 32.7975 65.7868 32.8257 65.9979 32.8257L72.0137 32.8088C72.3581 32.8088 72.6413 32.7863 72.8635 32.7413C73.0968 32.6962 73.2857 32.64 73.4301 32.5725C73.5856 32.4937 73.7078 32.4093 73.7967 32.3193C73.8856 32.218 74.0022 32.1673 74.1467 32.1673C74.1911 32.1673 74.2244 32.2067 74.2467 32.2855C74.2689 32.353 74.28 32.4318 74.28 32.5218C74.28 32.5668 74.2744 32.6343 74.2633 32.7244C74.2522 32.8144 74.2411 32.8875 74.23 32.9438C74.1856 33.1576 74.1411 33.3264 74.0967 33.4502C74.0633 33.574 74.0356 33.6921 74.0134 33.8047C74.0022 33.906 73.9967 34.041 73.9967 34.2098V34.4461C73.9967 34.5811 73.9745 34.7105 73.93 34.8343C73.8856 34.9581 73.8189 35.02 73.7301 35.02C73.6412 35.02 73.569 34.9637 73.5134 34.8512C73.4579 34.7274 73.4023 34.553 73.3468 34.3279C73.2801 34.0354 73.1302 33.8103 72.8969 33.6528C72.6747 33.4952 72.3025 33.4164 71.7804 33.4164H70.3806C70.1584 33.4164 69.9862 33.4558 69.864 33.5346C69.7418 33.6021 69.6585 33.7709 69.614 34.041C69.5807 34.2998 69.564 34.7218 69.564 35.307V41.9913C69.564 42.3739 69.6696 42.6553 69.8807 42.8353C70.1028 43.0154 70.425 43.1504 70.8472 43.2404C71.0027 43.2742 71.1194 43.3136 71.1971 43.3586C71.286 43.4036 71.3304 43.4711 71.3304 43.5611C71.3304 43.6286 71.2915 43.6793 71.2138 43.713C71.136 43.7468 71.0305 43.7637 70.8972 43.7637C70.6194 43.7637 70.3639 43.7524 70.1306 43.7299C69.8973 43.7187 69.6696 43.7074 69.4474 43.6962C69.2252 43.6849 68.9919 43.6793 68.7475 43.6793C68.4809 43.6793 68.2309 43.6849 67.9976 43.6962C67.7643 43.7074 67.5255 43.7187 67.2811 43.7299C67.0367 43.7524 66.77 43.7637 66.4812 43.7637Z" fill="#E6ECED"/>
<path d="M84.3069 43.9325C83.3071 43.9325 82.4683 43.7524 81.7907 43.3923C81.113 43.0322 80.602 42.5258 80.2576 41.8732C79.9132 41.2092 79.741 40.4384 79.741 39.5606V34.5136C79.741 34.1423 79.6632 33.8497 79.5077 33.6359C79.3633 33.4221 79.18 33.2927 78.9578 33.2476C78.6023 33.1464 78.4245 33.0226 78.4245 32.8763C78.4245 32.7975 78.469 32.7413 78.5578 32.7075C78.6467 32.6737 78.7578 32.6569 78.8911 32.6569C79.18 32.6569 79.4744 32.6681 79.7743 32.6906C80.0743 32.7131 80.3798 32.7244 80.6908 32.7244C80.9686 32.7244 81.2574 32.7188 81.5574 32.7075C81.8573 32.685 82.1239 32.6737 82.3572 32.6737C82.5017 32.6737 82.6128 32.6906 82.6905 32.7244C82.7794 32.7581 82.8238 32.8144 82.8238 32.8932C82.8238 32.9832 82.7627 33.0563 82.6405 33.1126C82.5294 33.1576 82.3795 33.2139 82.1906 33.2814C82.0462 33.3377 81.8962 33.4727 81.7407 33.6865C81.5963 33.8891 81.524 34.1704 81.524 34.5305V39.1555C81.524 40.0108 81.6629 40.7141 81.9407 41.2655C82.2184 41.8169 82.6017 42.222 83.0905 42.4808C83.5793 42.7396 84.1292 42.8691 84.7402 42.8691C85.84 42.8691 86.6455 42.5033 87.1565 41.7719C87.6787 41.0292 87.9397 40.0108 87.9397 38.7167C87.9397 38.4578 87.9397 38.1315 87.9397 37.7376C87.9397 37.3438 87.9342 36.9274 87.9231 36.4885C87.9231 36.0497 87.9175 35.6333 87.9064 35.2394C87.8953 34.8681 87.862 34.553 87.8064 34.2942C87.762 34.0241 87.6842 33.799 87.5731 33.619C87.462 33.4389 87.3176 33.3208 87.1398 33.2645C87.0288 33.2195 86.901 33.1689 86.7566 33.1126C86.6233 33.0563 86.5566 32.9832 86.5566 32.8932C86.5566 32.8257 86.601 32.775 86.6899 32.7413C86.7788 32.7075 86.8954 32.6906 87.0399 32.6906C87.3509 32.6906 87.5953 32.6962 87.7731 32.7075C87.9508 32.7188 88.1675 32.7244 88.423 32.7244C88.6118 32.7244 88.7785 32.7188 88.9229 32.7075C89.0784 32.6962 89.2284 32.685 89.3728 32.6737C89.5173 32.6625 89.6672 32.6569 89.8228 32.6569C89.9561 32.6569 90.0672 32.6737 90.1561 32.7075C90.2449 32.7413 90.2894 32.7975 90.2894 32.8763C90.2894 33.0226 90.1172 33.1351 89.7728 33.2139C89.4506 33.2927 89.2229 33.4446 89.0895 33.6696C88.9673 33.8947 88.8951 34.1929 88.8729 34.5643C88.8174 35.487 88.784 36.3366 88.7729 37.1131C88.7618 37.8783 88.7452 38.6435 88.7229 39.4087C88.7118 40.2865 88.5063 41.0686 88.1064 41.755C87.7175 42.4414 87.1954 42.976 86.5399 43.3586C85.8845 43.7412 85.1402 43.9325 84.3069 43.9325Z" fill="#E6ECED"/>
<path d="M95.0092 43.7637C94.887 43.7637 94.7815 43.7468 94.6926 43.713C94.6148 43.6905 94.5759 43.6399 94.5759 43.5611C94.5759 43.4148 94.737 43.3079 95.0592 43.2404C95.4814 43.1616 95.7924 43.0379 95.9924 42.8691C96.1924 42.7003 96.2924 42.4246 96.2924 42.042V34.4123C96.2924 34.0297 96.2146 33.7597 96.0591 33.6021C95.9035 33.4333 95.6147 33.3039 95.1925 33.2139C94.8703 33.1464 94.7093 33.0338 94.7093 32.8763C94.7093 32.7975 94.7481 32.7413 94.8259 32.7075C94.9037 32.6737 95.0037 32.6569 95.1259 32.6569C95.4147 32.6569 95.6702 32.6625 95.8924 32.6737C96.1257 32.685 96.3479 32.6962 96.559 32.7075C96.7701 32.7188 96.9978 32.7244 97.2422 32.7244C97.4755 32.7244 97.6921 32.7244 97.8921 32.7244C98.1032 32.7131 98.3143 32.7019 98.5253 32.6906C98.7475 32.6794 98.9975 32.6737 99.2752 32.6737C99.4085 32.6737 99.5141 32.6906 99.5918 32.7244C99.6696 32.7469 99.7085 32.7975 99.7085 32.8763C99.7085 32.9663 99.6641 33.0395 99.5752 33.0957C99.4974 33.1407 99.3808 33.1801 99.2252 33.2139C98.792 33.3152 98.4865 33.4446 98.3087 33.6021C98.1421 33.7597 98.0587 34.0297 98.0587 34.4123V42.042C98.0587 42.4133 98.1643 42.6834 98.3754 42.8522C98.5864 43.021 98.8975 43.1504 99.3085 43.2404C99.4752 43.2742 99.5974 43.3136 99.6752 43.3586C99.7529 43.4036 99.7918 43.4711 99.7918 43.5611C99.7918 43.6286 99.7529 43.6793 99.6752 43.713C99.6085 43.7468 99.5085 43.7637 99.3752 43.7637C99.0975 43.7637 98.842 43.7524 98.6087 43.7299C98.3754 43.7187 98.1476 43.7074 97.9254 43.6962C97.7144 43.6849 97.4866 43.6793 97.2422 43.6793C96.9756 43.6793 96.7256 43.6849 96.4923 43.6962C96.2701 43.7074 96.0368 43.7187 95.7924 43.7299C95.548 43.7524 95.2869 43.7637 95.0092 43.7637Z" fill="#E6ECED"/>
<path d="M107.418 43.7637C107.296 43.7637 107.191 43.7468 107.102 43.713C107.013 43.6905 106.968 43.6399 106.968 43.5611C106.968 43.4824 107.013 43.4205 107.102 43.3755C107.191 43.3192 107.313 43.2742 107.468 43.2404C107.89 43.1616 108.207 43.0322 108.418 42.8522C108.629 42.6721 108.735 42.3852 108.735 41.9913V35.307C108.735 34.8118 108.724 34.4405 108.701 34.1929C108.679 33.9341 108.646 33.7597 108.601 33.6696C108.557 33.5684 108.496 33.5065 108.418 33.484C108.285 33.4502 108.135 33.4333 107.968 33.4333C107.802 33.4221 107.607 33.4164 107.385 33.4164H106.735C106.446 33.4164 106.157 33.484 105.868 33.619C105.591 33.7428 105.38 33.9228 105.235 34.1591C105.191 34.2267 105.124 34.3223 105.035 34.4461C104.958 34.5586 104.869 34.6599 104.769 34.7499C104.669 34.8287 104.569 34.8681 104.469 34.8681C104.413 34.8681 104.369 34.8456 104.335 34.8006C104.313 34.7556 104.302 34.6993 104.302 34.6318C104.302 34.508 104.335 34.3842 104.402 34.2604C104.58 33.9003 104.708 33.5852 104.785 33.3152C104.863 33.0451 104.924 32.7244 104.969 32.353C104.991 32.173 105.035 32.0604 105.102 32.0154C105.169 31.9704 105.235 31.9479 105.302 31.9479C105.357 31.9479 105.43 32.0211 105.519 32.1673C105.619 32.3024 105.696 32.4149 105.752 32.5049C105.841 32.6062 106.007 32.685 106.252 32.7413C106.496 32.7975 106.724 32.8257 106.935 32.8257L112.951 32.8088C113.295 32.8088 113.578 32.7863 113.801 32.7413C114.034 32.6962 114.223 32.64 114.367 32.5725C114.523 32.4937 114.645 32.4093 114.734 32.3193C114.823 32.218 114.939 32.1673 115.084 32.1673C115.128 32.1673 115.161 32.2067 115.184 32.2855C115.206 32.353 115.217 32.4318 115.217 32.5218C115.217 32.5668 115.211 32.6343 115.2 32.7244C115.189 32.8144 115.178 32.8875 115.167 32.9438C115.123 33.1576 115.078 33.3264 115.034 33.4502C115 33.574 114.973 33.6921 114.95 33.8047C114.939 33.906 114.934 34.041 114.934 34.2098V34.4461C114.934 34.5811 114.912 34.7105 114.867 34.8343C114.823 34.9581 114.756 35.02 114.667 35.02C114.578 35.02 114.506 34.9637 114.45 34.8512C114.395 34.7274 114.339 34.553 114.284 34.3279C114.217 34.0354 114.067 33.8103 113.834 33.6528C113.612 33.4952 113.24 33.4164 112.717 33.4164H111.318C111.095 33.4164 110.923 33.4558 110.801 33.5346C110.679 33.6021 110.596 33.7709 110.551 34.041C110.518 34.2998 110.501 34.7218 110.501 35.307V41.9913C110.501 42.3739 110.607 42.6553 110.818 42.8353C111.04 43.0154 111.362 43.1504 111.784 43.2404C111.94 43.2742 112.056 43.3136 112.134 43.3586C112.223 43.4036 112.267 43.4711 112.267 43.5611C112.267 43.6286 112.229 43.6793 112.151 43.713C112.073 43.7468 111.968 43.7637 111.834 43.7637C111.556 43.7637 111.301 43.7524 111.068 43.7299C110.834 43.7187 110.607 43.7074 110.384 43.6962C110.162 43.6849 109.929 43.6793 109.685 43.6793C109.418 43.6793 109.168 43.6849 108.935 43.6962C108.701 43.7074 108.463 43.7187 108.218 43.7299C107.974 43.7524 107.707 43.7637 107.418 43.7637Z" fill="#E6ECED"/>
<path d="M119.995 43.7806C119.862 43.7806 119.756 43.7637 119.678 43.7299C119.6 43.6962 119.562 43.6455 119.562 43.578C119.562 43.4317 119.723 43.3248 120.045 43.2573C120.456 43.1673 120.75 43.0435 120.928 42.8859C121.117 42.7171 121.211 42.4358 121.211 42.042V34.4123C121.211 34.0297 121.134 33.754 120.978 33.5852C120.822 33.4164 120.539 33.2927 120.128 33.2139C119.961 33.1801 119.839 33.1351 119.762 33.0788C119.684 33.0226 119.645 32.9551 119.645 32.8763C119.645 32.8088 119.684 32.7581 119.762 32.7244C119.839 32.6794 119.945 32.6569 120.078 32.6569C120.445 32.6569 120.772 32.6625 121.061 32.6737C121.361 32.685 121.65 32.6962 121.928 32.7075C122.217 32.7188 122.528 32.7244 122.861 32.7244C123.305 32.7244 123.772 32.7244 124.261 32.7244C124.761 32.7131 125.211 32.7019 125.611 32.6906C125.988 32.6906 126.299 32.685 126.544 32.6737C126.799 32.6512 126.949 32.64 126.994 32.64C127.06 32.64 127.127 32.6569 127.194 32.6906C127.271 32.7131 127.316 32.7638 127.327 32.8425C127.383 33.1914 127.438 33.5346 127.494 33.8722C127.56 34.1985 127.594 34.4855 127.594 34.7331C127.594 34.8456 127.566 34.9244 127.51 34.9694C127.466 35.0031 127.416 35.02 127.36 35.02C127.305 35.02 127.26 35.0031 127.227 34.9694C127.194 34.9356 127.16 34.885 127.127 34.8175C127.049 34.5924 126.977 34.3898 126.91 34.2098C126.844 34.0185 126.766 33.8778 126.677 33.7878C126.533 33.6303 126.366 33.5121 126.177 33.4333C125.988 33.3545 125.777 33.3152 125.544 33.3152H123.678C123.533 33.3152 123.378 33.3714 123.211 33.484C123.055 33.5852 122.978 33.7315 122.978 33.9228V37.3663C122.978 37.4788 123.011 37.5688 123.078 37.6364C123.144 37.7039 123.222 37.7376 123.311 37.7376H124.894C125.216 37.7376 125.438 37.6645 125.561 37.5182C125.683 37.3719 125.783 37.1469 125.861 36.843C125.938 36.618 126.044 36.5054 126.177 36.5054C126.233 36.5054 126.283 36.5336 126.327 36.5898C126.372 36.6348 126.394 36.708 126.394 36.8093C126.394 36.8768 126.388 36.9893 126.377 37.1469C126.366 37.3044 126.355 37.4676 126.344 37.6364C126.333 37.8052 126.327 37.9402 126.327 38.0415C126.327 38.1653 126.327 38.3172 126.327 38.4972C126.338 38.666 126.349 38.8348 126.361 39.0036C126.372 39.1724 126.377 39.2962 126.377 39.375C126.388 39.4762 126.377 39.5606 126.344 39.6282C126.322 39.6844 126.283 39.7126 126.227 39.7126C126.049 39.7126 125.916 39.5494 125.827 39.223C125.761 38.9305 125.666 38.711 125.544 38.5647C125.433 38.4185 125.266 38.3453 125.044 38.3453H123.494C123.317 38.3453 123.183 38.3734 123.094 38.4297C123.017 38.486 122.978 38.6041 122.978 38.7842V42.0082C122.978 42.4021 123.061 42.6778 123.228 42.8353C123.394 42.9816 123.65 43.0547 123.994 43.0547H125.311C125.622 43.0547 125.894 43.0322 126.127 42.9872C126.361 42.9422 126.56 42.8578 126.727 42.734C126.916 42.599 127.083 42.4246 127.227 42.2108C127.371 41.9969 127.521 41.7325 127.677 41.4174C127.721 41.3499 127.766 41.2993 127.81 41.2655C127.855 41.2205 127.905 41.2036 127.96 41.2149C128.027 41.2149 128.071 41.243 128.094 41.2993C128.127 41.3443 128.144 41.4062 128.144 41.4849C128.144 41.6087 128.116 41.7944 128.06 42.042C128.005 42.2895 127.932 42.5483 127.844 42.8184C127.766 43.0885 127.694 43.3192 127.627 43.5105C127.594 43.5893 127.555 43.6511 127.51 43.6962C127.466 43.7524 127.41 43.7806 127.344 43.7806C126.944 43.7806 126.527 43.7749 126.094 43.7637C125.661 43.7524 125.216 43.7412 124.761 43.7299C124.305 43.7187 123.85 43.7074 123.394 43.6962C122.939 43.6849 122.489 43.6793 122.045 43.6793C121.811 43.6793 121.589 43.6849 121.378 43.6962C121.167 43.7187 120.95 43.7355 120.728 43.7468C120.517 43.7693 120.273 43.7806 119.995 43.7806Z" fill="#E6ECED"/>
</svg>
