<svg width="129" height="42" viewBox="0 0 129 42" fill="none" xmlns="http://www.w3.org/2000/svg">
<path d="M15.7182 18.113C15.1088 18.113 14.5586 18.0444 14.0677 17.9072C13.5937 17.7872 13.162 17.5986 12.7726 17.3414C12.4002 17.0842 12.0616 16.7669 11.7569 16.3897C11.3676 15.8753 10.9867 15.378 10.6142 14.8978C10.2587 14.4177 9.88631 13.8776 9.49695 13.2774C9.10759 12.6601 8.65052 11.9142 8.12573 11.0396C7.90566 10.6109 7.59248 10.2937 7.1862 10.0879C6.89841 9.93361 6.60216 9.83072 6.29744 9.77928C6.00966 9.71069 5.77266 9.66782 5.58644 9.65067C5.46794 9.65067 5.37483 9.70211 5.30712 9.805C5.25633 9.89074 5.23094 10.0108 5.23094 10.1651V14.8207C5.23094 15.3694 5.36637 15.8238 5.63723 16.1839C5.90809 16.5269 6.37362 16.7584 7.03384 16.8784C7.27084 16.9298 7.44859 16.9898 7.56709 17.0584C7.70252 17.127 7.77023 17.2299 7.77023 17.3671C7.77023 17.47 7.71098 17.5471 7.59248 17.5986C7.47398 17.65 7.31316 17.6757 7.11002 17.6757C6.6868 17.6757 6.30591 17.6586 5.96734 17.6243C5.64569 17.6072 5.33251 17.59 5.0278 17.5729C4.74001 17.5386 4.4353 17.5214 4.11365 17.5214C3.70737 17.5214 3.31801 17.5386 2.94558 17.5729C2.59008 17.59 2.22611 17.6072 1.85368 17.6243C1.49818 17.6586 1.10036 17.6757 0.660216 17.6757C0.474001 17.6757 0.313179 17.65 0.17775 17.5986C0.0592501 17.5643 0 17.4871 0 17.3671C0 17.1442 0.245465 16.9813 0.736395 16.8784C1.37968 16.7584 1.83675 16.5697 2.10761 16.3125C2.3954 16.0553 2.53929 15.6266 2.53929 15.0264V3.86335C2.53929 3.28034 2.50543 2.84307 2.43772 2.55156C2.37001 2.24291 2.22611 2.02856 2.00604 1.90853C1.8029 1.77135 1.47279 1.66846 1.01572 1.59987C0.744859 1.56558 0.55018 1.50556 0.43168 1.41982C0.313179 1.31694 0.253929 1.20548 0.253929 1.08544C0.253929 0.982558 0.313179 0.905393 0.43168 0.85395C0.567109 0.78536 0.72793 0.751064 0.914145 0.751064C1.40507 0.751064 1.78597 0.759638 2.05683 0.776786C2.32768 0.793934 2.58161 0.811082 2.81861 0.828229C3.07254 0.828229 3.38572 0.828229 3.75815 0.828229C4.09672 0.828229 4.40144 0.819655 4.6723 0.802508C4.94316 0.768212 5.24787 0.742491 5.58644 0.725343C5.92501 0.691049 6.35669 0.673901 6.88148 0.673901C8.77749 0.673901 10.2249 1.02543 11.2237 1.72848C12.2394 2.41438 12.7472 3.46039 12.7472 4.86649C12.7472 5.63813 12.5864 6.29831 12.2648 6.84704C11.9601 7.39576 11.5707 7.85017 11.0967 8.21027C10.6227 8.57037 10.1487 8.85331 9.6747 9.05908C9.60699 9.07623 9.57313 9.1191 9.57313 9.18769C9.59006 9.23913 9.61545 9.30772 9.64931 9.39346C10.1741 10.1822 10.6735 10.9367 11.1475 11.6569C11.6384 12.36 12.1547 13.0459 12.6965 13.7147C13.2551 14.3663 13.8899 15.0264 14.6009 15.6952C15.0749 16.141 15.5659 16.4068 16.0737 16.4926C16.5985 16.5783 17.1572 16.6212 17.7497 16.6212C18.0036 16.6212 18.1305 16.7412 18.1305 16.9813C18.1305 17.2728 17.9951 17.4957 17.7243 17.65C17.4703 17.8215 17.1572 17.9415 16.7847 18.0101C16.4123 18.0787 16.0568 18.113 15.7182 18.113ZM6.4498 8.98191C7.17773 8.98191 7.79563 8.81901 8.30348 8.49321C8.82827 8.15026 9.22609 7.70442 9.49695 7.15569C9.78474 6.58982 9.92863 5.98108 9.92863 5.32947C9.92863 4.59213 9.83552 3.94052 9.64931 3.37465C9.4631 2.80878 9.12452 2.37151 8.63359 2.06286C8.14266 1.73705 7.44013 1.57415 6.52598 1.57415C6.05198 1.57415 5.73034 1.74563 5.56105 2.08858C5.39176 2.41438 5.29866 3.04027 5.28173 3.96624C5.2648 4.37778 5.24787 4.92651 5.23094 5.61241C5.23094 6.29831 5.23094 7.11283 5.23094 8.05594C5.23094 8.46749 5.34098 8.7247 5.56105 8.82759C5.78112 8.93047 6.07737 8.98191 6.4498 8.98191Z" fill="#31576A"/>
<path d="M24.9731 17.6757C24.7869 17.6757 24.6261 17.65 24.4907 17.5986C24.3722 17.5643 24.3129 17.4871 24.3129 17.3671C24.3129 17.1442 24.5584 16.9813 25.0493 16.8784C25.6926 16.7584 26.1666 16.5697 26.4713 16.3125C26.776 16.0553 26.9284 15.6352 26.9284 15.0522V3.42609C26.9284 2.84307 26.8099 2.43153 26.5729 2.19146C26.3359 1.93425 25.8958 1.73705 25.2525 1.59987C24.7615 1.49699 24.5161 1.32551 24.5161 1.08544C24.5161 0.96541 24.5753 0.879672 24.6938 0.828229C24.8123 0.776786 24.9647 0.751064 25.1509 0.751064C25.591 0.751064 25.9804 0.759638 26.319 0.776786C26.6745 0.793934 27.013 0.811082 27.3347 0.828229C27.6563 0.845377 28.0034 0.85395 28.3758 0.85395C28.7313 0.85395 29.0614 0.85395 29.3661 0.85395C29.6878 0.836803 30.0094 0.819655 30.3311 0.802508C30.6696 0.78536 31.0505 0.776786 31.4737 0.776786C31.6769 0.776786 31.8377 0.802507 31.9562 0.85395C32.0747 0.888246 32.1339 0.96541 32.1339 1.08544C32.1339 1.22262 32.0662 1.33408 31.9308 1.41982C31.8123 1.48841 31.6346 1.54843 31.3976 1.59987C30.7373 1.7542 30.2718 1.9514 30.0009 2.19146C29.747 2.43153 29.62 2.84307 29.62 3.42609V15.0522C29.62 15.618 29.7809 16.0296 30.1025 16.2868C30.4242 16.544 30.8982 16.7412 31.5245 16.8784C31.7784 16.9298 31.9647 16.9898 32.0832 17.0584C32.2017 17.127 32.2609 17.2299 32.2609 17.3671C32.2609 17.47 32.2017 17.5471 32.0832 17.5986C31.9816 17.65 31.8292 17.6757 31.6261 17.6757C31.2029 17.6757 30.8135 17.6586 30.458 17.6243C30.1025 17.6072 29.7555 17.59 29.4169 17.5729C29.0953 17.5557 28.7482 17.5471 28.3758 17.5471C27.9695 17.5471 27.5886 17.5557 27.2331 17.5729C26.8945 17.59 26.539 17.6072 26.1666 17.6243C25.7942 17.6586 25.3964 17.6757 24.9731 17.6757Z" fill="#31576A"/>
<path d="M39.9462 17.6757C39.76 17.6757 39.6077 17.6415 39.4892 17.5729C39.3707 17.5214 39.3114 17.4443 39.3114 17.3414C39.3114 17.1356 39.5484 16.9813 40.0224 16.8784C40.6488 16.7584 41.0635 16.5697 41.2667 16.3125C41.4698 16.0553 41.5714 15.6352 41.5714 15.0522V3.40037C41.5714 2.81735 41.4952 2.40581 41.3428 2.16574C41.1905 1.92568 40.8011 1.73705 40.1748 1.59987C39.6838 1.49699 39.4384 1.33408 39.4384 1.11116C39.4384 1.00828 39.4892 0.922541 39.5907 0.85395C39.7092 0.78536 39.8701 0.751064 40.0732 0.751064C40.5133 0.751064 40.8858 0.759638 41.1905 0.776786C41.4952 0.793934 41.783 0.811082 42.0538 0.828229C42.3416 0.845377 42.6548 0.85395 42.9934 0.85395C43.3489 0.85395 43.6705 0.85395 43.9583 0.85395C44.263 0.836803 44.5762 0.819655 44.8979 0.802508C45.2364 0.78536 45.6173 0.776786 46.0405 0.776786C46.4807 0.776786 46.7008 0.888245 46.7008 1.11116C46.7008 1.24835 46.633 1.35123 46.4976 1.41982C46.3791 1.48841 46.2014 1.54843 45.9644 1.59987C45.3211 1.7542 44.8725 1.96854 44.6185 2.24291C44.3815 2.51727 44.263 2.90309 44.263 3.40037V8.31316C44.263 8.43319 44.2969 8.51036 44.3646 8.54465C44.4492 8.57895 44.5339 8.59609 44.6185 8.59609H53.0998C53.2521 8.59609 53.3283 8.48463 53.3283 8.26171V3.40037C53.3283 2.92024 53.2098 2.54299 52.9728 2.26863C52.7527 1.97712 52.3126 1.7542 51.6524 1.59987C51.3984 1.54843 51.2122 1.48841 51.0937 1.41982C50.9752 1.35123 50.916 1.24835 50.916 1.11116C50.916 0.888245 51.1276 0.776786 51.5508 0.776786C51.974 0.776786 52.3634 0.78536 52.7189 0.802508C53.0744 0.819655 53.4129 0.836803 53.7346 0.85395C54.0732 0.85395 54.4202 0.85395 54.7757 0.85395C55.0973 0.85395 55.3767 0.845377 55.6137 0.828229C55.8676 0.811082 56.13 0.793934 56.4008 0.776786C56.6886 0.759638 57.0526 0.751064 57.4927 0.751064C57.6959 0.751064 57.8567 0.78536 57.9752 0.85395C58.0937 0.922541 58.153 1.00828 58.153 1.11116C58.153 1.33408 57.9075 1.49699 57.4166 1.59987C56.7902 1.73705 56.4008 1.94282 56.2485 2.21719C56.0961 2.4744 56.02 2.86022 56.02 3.37465V15.0264C56.02 15.6266 56.1046 16.0553 56.2739 16.3125C56.4601 16.5697 56.8579 16.7584 57.4674 16.8784C57.9414 16.9813 58.1784 17.1356 58.1784 17.3414C58.1784 17.4443 58.1106 17.5214 57.9752 17.5729C57.8567 17.6415 57.7044 17.6757 57.5181 17.6757C57.1118 17.6757 56.7479 17.6586 56.4262 17.6243C56.1215 17.6072 55.8253 17.59 55.5375 17.5729C55.2497 17.5557 54.9365 17.5471 54.5979 17.5471C54.2424 17.5471 53.9123 17.5557 53.6076 17.5729C53.3198 17.59 53.0067 17.6072 52.6681 17.6243C52.3295 17.6586 51.9486 17.6757 51.5254 17.6757C51.3223 17.6757 51.1614 17.6415 51.0429 17.5729C50.9414 17.5214 50.8906 17.4443 50.8906 17.3414C50.8906 17.2042 50.9414 17.1099 51.0429 17.0584C51.1614 16.9898 51.3477 16.9298 51.6016 16.8784C52.1772 16.7584 52.6088 16.5612 52.8966 16.2868C53.1844 16.0124 53.3283 15.6095 53.3283 15.0779V10.1137C53.3283 10.0108 53.3198 9.92503 53.3029 9.85644C53.286 9.7707 53.2267 9.72784 53.1252 9.72784H44.4662C44.3307 9.72784 44.263 9.83072 44.263 10.0365V14.8978C44.263 15.4123 44.4323 15.841 44.7709 16.1839C45.1095 16.5269 45.575 16.7584 46.1675 16.8784C46.4214 16.9298 46.6076 16.9898 46.7261 17.0584C46.8446 17.1099 46.9039 17.2042 46.9039 17.3414C46.9039 17.4443 46.8446 17.5214 46.7261 17.5729C46.6076 17.6415 46.4468 17.6757 46.2437 17.6757C45.8205 17.6757 45.4311 17.6586 45.0756 17.6243C44.7201 17.6072 44.3731 17.59 44.0345 17.5729C43.7129 17.5557 43.3658 17.5471 42.9934 17.5471C42.6548 17.5471 42.3332 17.5557 42.0285 17.5729C41.7237 17.59 41.4021 17.6072 41.0635 17.6243C40.7419 17.6586 40.3695 17.6757 39.9462 17.6757Z" fill="#31576A"/>
<path d="M66.1172 17.7015C65.931 17.7015 65.7786 17.6672 65.6601 17.5986C65.5416 17.53 65.4824 17.4528 65.4824 17.3671C65.4824 17.2299 65.5501 17.127 65.6855 17.0584C65.821 16.9727 65.931 16.9213 66.0156 16.9041C66.6589 16.7498 67.1329 16.5526 67.4376 16.3125C67.7593 16.0724 67.9201 15.6695 67.9201 15.1036V3.24604C67.9201 2.8345 67.8778 2.53442 67.7931 2.34579C67.7085 2.14002 67.5477 1.98569 67.3107 1.88281C67.0906 1.77992 66.769 1.68561 66.3457 1.59987C65.8548 1.49699 65.6094 1.32551 65.6094 1.08544C65.6094 0.96541 65.6686 0.879672 65.7871 0.828229C65.9225 0.776786 66.0834 0.751064 66.2696 0.751064C66.6928 0.751064 67.0737 0.759638 67.4122 0.776786C67.7508 0.793934 68.0725 0.811082 68.3772 0.828229C68.6819 0.845377 69.0205 0.85395 69.3929 0.85395C69.7823 0.85395 70.1547 0.85395 70.5102 0.85395C70.8657 0.836803 71.2297 0.819655 71.6021 0.802508C71.9745 0.78536 72.3723 0.776786 72.7955 0.776786C72.9987 0.776786 73.1511 0.802507 73.2526 0.85395C73.3711 0.888246 73.4304 0.96541 73.4304 1.08544C73.4304 1.22262 73.3711 1.33408 73.2526 1.41982C73.1341 1.48841 72.9479 1.54843 72.694 1.59987C72.0507 1.7542 71.5428 1.92568 71.1704 2.1143C70.798 2.28578 70.6118 2.62015 70.6118 3.11743V15.0264C70.6118 15.558 70.7218 15.9438 70.9419 16.1839C71.1789 16.4068 71.6529 16.5183 72.3639 16.5183H75.3094C75.7496 16.5183 76.1305 16.4497 76.4521 16.3125C76.7907 16.1753 77.0531 16.021 77.2393 15.8495C77.561 15.558 77.8064 15.2837 77.9757 15.0264C78.1619 14.7521 78.3566 14.392 78.5597 13.9461C78.6444 13.7575 78.7375 13.5775 78.8391 13.406C78.9406 13.2345 79.0507 13.1488 79.1692 13.1488C79.2877 13.1488 79.3723 13.2088 79.4231 13.3288C79.4739 13.4317 79.4993 13.5346 79.4993 13.6375C79.4993 13.6718 79.4908 13.7147 79.4739 13.7661C79.457 13.8175 79.4485 13.869 79.4485 13.9204C79.33 14.3834 79.22 14.795 79.1184 15.1551C79.0168 15.5152 78.9322 15.8581 78.8645 16.1839C78.8137 16.5097 78.7713 16.8612 78.7375 17.2385C78.7206 17.3585 78.6867 17.47 78.6359 17.5729C78.5851 17.6586 78.492 17.7015 78.3566 17.7015C77.6964 17.7015 76.9938 17.6929 76.249 17.6757C75.5041 17.6586 74.7508 17.6415 73.989 17.6243C73.2272 17.6243 72.4739 17.6157 71.729 17.5986C71.0011 17.5814 70.2986 17.5729 69.6214 17.5729C69.2152 17.5729 68.7581 17.5814 68.2502 17.5986C67.7593 17.6157 67.3022 17.6329 66.879 17.65C66.4727 17.6843 66.2188 17.7015 66.1172 17.7015Z" fill="#31576A"/>
<path d="M86.1766 17.7015C85.9735 17.7015 85.8042 17.6672 85.6688 17.5986C85.5333 17.5471 85.4656 17.4614 85.4656 17.3414C85.4656 17.2042 85.5333 17.0927 85.6688 17.007C85.8042 16.9213 85.9904 16.8355 86.2274 16.7498C86.6845 16.6126 87.0992 16.4068 87.4717 16.1325C87.8441 15.8581 88.1488 15.438 88.3858 14.8721C88.8429 13.8261 89.2661 12.8316 89.6555 11.8884C90.0448 10.9282 90.4172 9.98505 90.7727 9.05908C91.1282 8.13311 91.4922 7.18142 91.8646 6.204C92.2371 5.20944 92.618 4.15486 93.0073 3.04027C93.1597 2.64588 93.2697 2.32007 93.3374 2.06286C93.4051 1.78849 93.4475 1.54843 93.4644 1.34266C93.6845 1.29121 93.8876 1.23977 94.0738 1.18833C94.26 1.11974 94.4632 1.02543 94.6833 0.905394C94.8864 0.802508 95.0388 0.656753 95.1403 0.46813C95.2588 0.262358 95.3519 0.116603 95.4196 0.0308652C95.4535 0.0137178 95.4874 0.00514415 95.5212 0.00514415C95.572 -0.0120032 95.6143 0.0137184 95.6482 0.0823089C95.699 0.168047 95.7328 0.262358 95.7498 0.365244C95.7836 0.468129 95.8175 0.579589 95.8513 0.699622C96.2407 1.9514 96.6385 3.22889 97.0448 4.53211C97.468 5.81818 97.8828 7.07853 98.2891 8.31316C98.6953 9.54779 99.0762 10.6967 99.4317 11.7598C99.7872 12.8058 100.092 13.7232 100.346 14.512C100.532 15.0779 100.752 15.5152 101.006 15.8238C101.26 16.1153 101.531 16.3382 101.819 16.4926C102.106 16.6297 102.42 16.7326 102.758 16.8012C103.012 16.8527 103.198 16.9298 103.317 17.0327C103.452 17.1356 103.52 17.2556 103.52 17.3928C103.52 17.4957 103.452 17.5643 103.317 17.5986C103.198 17.65 103.046 17.6757 102.86 17.6757C102.589 17.6757 102.233 17.6586 101.793 17.6243C101.353 17.6072 100.896 17.59 100.422 17.5729C99.948 17.5557 99.5164 17.5471 99.127 17.5471C98.8054 17.5471 98.4499 17.5471 98.0605 17.5471C97.6712 17.5471 97.2987 17.5557 96.9432 17.5729C96.6046 17.59 96.3084 17.5986 96.0545 17.5986C95.8513 17.5986 95.682 17.5729 95.5466 17.5214C95.4281 17.4528 95.3689 17.3671 95.3689 17.2642C95.3689 17.127 95.445 17.0156 95.5974 16.9298C95.7498 16.8441 95.9275 16.7841 96.1307 16.7498C96.7062 16.6469 97.121 16.4926 97.3749 16.2868C97.6458 16.081 97.7558 15.8067 97.705 15.4637C97.6881 15.1722 97.6288 14.8121 97.5273 14.3834C97.4257 13.9376 97.3072 13.4746 97.1718 12.9945C97.0363 12.4972 96.9094 12.0428 96.7909 11.6312C96.757 11.494 96.6978 11.4083 96.6131 11.374C96.5285 11.3397 96.3846 11.3226 96.1814 11.3226H91.4837C91.3991 11.3226 91.3229 11.3569 91.2552 11.4254C91.1875 11.4769 91.1198 11.5883 91.0521 11.7598C91.0013 11.9656 90.9166 12.2314 90.7981 12.5572C90.6966 12.8658 90.595 13.2002 90.4934 13.5603C90.3919 13.9033 90.2987 14.2291 90.2141 14.5377C90.1464 14.8292 90.1041 15.0436 90.0871 15.1808C90.0363 15.6095 90.1379 15.9524 90.3919 16.2096C90.6627 16.4497 91.0605 16.6383 91.5853 16.7755C92.0932 16.9127 92.3471 17.0842 92.3471 17.2899C92.3471 17.41 92.2794 17.4957 92.144 17.5471C92.0255 17.5814 91.8646 17.5986 91.6615 17.5986C91.3399 17.5986 90.9674 17.59 90.5442 17.5729C90.121 17.5557 89.6724 17.5471 89.1984 17.5471C88.6567 17.5471 88.1319 17.5729 87.624 17.6243C87.1162 17.6757 86.6337 17.7015 86.1766 17.7015ZM92.1947 10.268H95.9021C96.1391 10.268 96.2576 10.2251 96.2576 10.1394C96.2576 10.0879 96.2492 10.0451 96.2322 10.0108C96.2322 9.97648 96.2238 9.92503 96.2068 9.85644L94.3278 3.76047C94.2431 3.48611 94.1754 3.34893 94.1246 3.34893C94.0908 3.34893 94.0315 3.47753 93.9469 3.73475L91.7377 9.85644C91.7038 9.95933 91.6869 10.0279 91.6869 10.0622C91.6869 10.148 91.7292 10.208 91.8139 10.2423C91.9154 10.2594 92.0424 10.268 92.1947 10.268Z" fill="#31576A"/>
<path d="M110.535 17.6757C110.348 17.6757 110.196 17.6415 110.078 17.5729C109.959 17.5214 109.9 17.4443 109.9 17.3414C109.9 17.1356 110.137 16.9813 110.611 16.8784C111.237 16.7584 111.652 16.5697 111.855 16.3125C112.058 16.0553 112.16 15.6352 112.16 15.0522V3.40037C112.16 2.81735 112.084 2.40581 111.931 2.16574C111.779 1.92568 111.389 1.73705 110.763 1.59987C110.272 1.49699 110.027 1.33408 110.027 1.11116C110.027 1.00828 110.078 0.922541 110.179 0.85395C110.298 0.78536 110.458 0.751064 110.662 0.751064C111.102 0.751064 111.474 0.759638 111.779 0.776786C112.084 0.793934 112.371 0.811082 112.642 0.828229C112.93 0.845377 113.243 0.85395 113.582 0.85395C113.937 0.85395 114.259 0.85395 114.547 0.85395C114.851 0.836803 115.165 0.819655 115.486 0.802508C115.825 0.78536 116.206 0.776786 116.629 0.776786C117.069 0.776786 117.289 0.888245 117.289 1.11116C117.289 1.24835 117.221 1.35123 117.086 1.41982C116.967 1.48841 116.79 1.54843 116.553 1.59987C115.909 1.7542 115.461 1.96854 115.207 2.24291C114.97 2.51727 114.851 2.90309 114.851 3.40037V8.31316C114.851 8.43319 114.885 8.51036 114.953 8.54465C115.038 8.57895 115.122 8.59609 115.207 8.59609H123.688C123.84 8.59609 123.917 8.48463 123.917 8.26171V3.40037C123.917 2.92024 123.798 2.54299 123.561 2.26863C123.341 1.97712 122.901 1.7542 122.241 1.59987C121.987 1.54843 121.801 1.48841 121.682 1.41982C121.564 1.35123 121.504 1.24835 121.504 1.11116C121.504 0.888245 121.716 0.776786 122.139 0.776786C122.562 0.776786 122.952 0.78536 123.307 0.802508C123.663 0.819655 124.001 0.836803 124.323 0.85395C124.662 0.85395 125.009 0.85395 125.364 0.85395C125.686 0.85395 125.965 0.845377 126.202 0.828229C126.456 0.811082 126.718 0.793934 126.989 0.776786C127.277 0.759638 127.641 0.751064 128.081 0.751064C128.284 0.751064 128.445 0.78536 128.564 0.85395C128.682 0.922541 128.741 1.00828 128.741 1.11116C128.741 1.33408 128.496 1.49699 128.005 1.59987C127.379 1.73705 126.989 1.94282 126.837 2.21719C126.684 2.4744 126.608 2.86022 126.608 3.37465V15.0264C126.608 15.6266 126.693 16.0553 126.862 16.3125C127.048 16.5697 127.446 16.7584 128.056 16.8784C128.53 16.9813 128.767 17.1356 128.767 17.3414C128.767 17.4443 128.699 17.5214 128.564 17.5729C128.445 17.6415 128.293 17.6757 128.106 17.6757C127.7 17.6757 127.336 17.6586 127.015 17.6243C126.71 17.6072 126.414 17.59 126.126 17.5729C125.838 17.5557 125.525 17.5471 125.186 17.5471C124.831 17.5471 124.501 17.5557 124.196 17.5729C123.908 17.59 123.595 17.6072 123.256 17.6243C122.918 17.6586 122.537 17.6757 122.114 17.6757C121.911 17.6757 121.75 17.6415 121.631 17.5729C121.53 17.5214 121.479 17.4443 121.479 17.3414C121.479 17.2042 121.53 17.1099 121.631 17.0584C121.75 16.9898 121.936 16.9298 122.19 16.8784C122.766 16.7584 123.197 16.5612 123.485 16.2868C123.773 16.0124 123.917 15.6095 123.917 15.0779V10.1137C123.917 10.0108 123.908 9.92503 123.891 9.85644C123.874 9.7707 123.815 9.72784 123.714 9.72784H115.055C114.919 9.72784 114.851 9.83072 114.851 10.0365V14.8978C114.851 15.4123 115.021 15.841 115.359 16.1839C115.698 16.5269 116.163 16.7584 116.756 16.8784C117.01 16.9298 117.196 16.9898 117.314 17.0584C117.433 17.1099 117.492 17.2042 117.492 17.3414C117.492 17.4443 117.433 17.5214 117.314 17.5729C117.196 17.6415 117.035 17.6757 116.832 17.6757C116.409 17.6757 116.019 17.6586 115.664 17.6243C115.308 17.6072 114.961 17.59 114.623 17.5729C114.301 17.5557 113.954 17.5471 113.582 17.5471C113.243 17.5471 112.922 17.5557 112.617 17.5729C112.312 17.59 111.99 17.6072 111.652 17.6243C111.33 17.6586 110.958 17.6757 110.535 17.6757Z" fill="#31576A"/>
<path d="M5.0563 41.2637C4.9341 41.2637 4.82856 41.2468 4.73968 41.213C4.66192 41.1905 4.62303 41.1399 4.62303 41.0611C4.62303 40.9148 4.78412 40.8079 5.10629 40.7404C5.52845 40.6616 5.83951 40.5379 6.03948 40.3691C6.23945 40.2003 6.33944 39.9246 6.33944 39.542V31.9123C6.33944 31.5297 6.26167 31.2597 6.10614 31.1021C5.95061 30.9333 5.66176 30.8039 5.23961 30.7139C4.91743 30.6464 4.75635 30.5338 4.75635 30.3763C4.75635 30.2975 4.79523 30.2413 4.87299 30.2075C4.95076 30.1737 5.05075 30.1569 5.17295 30.1569C5.46179 30.1569 5.71731 30.1625 5.9395 30.1737C6.17279 30.185 6.39498 30.1962 6.60606 30.2075C6.81714 30.2187 7.04488 30.2244 7.28929 30.2244C7.52259 30.2244 7.73922 30.2244 7.93919 30.2244C8.15027 30.2131 8.36135 30.2019 8.57243 30.1906C8.79461 30.1794 9.04458 30.1737 9.32231 30.1737C9.45562 30.1737 9.56116 30.1906 9.63893 30.2244C9.7167 30.2469 9.75558 30.2975 9.75558 30.3763C9.75558 30.4663 9.71114 30.5395 9.62226 30.5957C9.5445 30.6407 9.42785 30.6801 9.27232 30.7139C8.83905 30.8152 8.53354 30.9446 8.35579 31.1021C8.18915 31.2597 8.10583 31.5297 8.10583 31.9123V39.542C8.10583 39.9133 8.21137 40.1834 8.42245 40.3522C8.63353 40.521 8.94459 40.6504 9.35564 40.7404C9.52228 40.7742 9.64448 40.8136 9.72225 40.8586C9.80002 40.9036 9.8389 40.9711 9.8389 41.0611C9.8389 41.1286 9.80002 41.1793 9.72225 41.213C9.65559 41.2468 9.55561 41.2637 9.4223 41.2637C9.14456 41.2637 8.88904 41.2524 8.65575 41.2299C8.42245 41.2187 8.19471 41.2074 7.97252 41.1962C7.76144 41.1849 7.5337 41.1793 7.28929 41.1793C7.02266 41.1793 6.7727 41.1849 6.53941 41.1962C6.31722 41.2074 6.08392 41.2187 5.83951 41.2299C5.59511 41.2524 5.33404 41.2637 5.0563 41.2637Z" fill="#31576A"/>
<path d="M25.1475 41.5C25.0364 41.5 24.8253 41.41 24.5142 41.2299C24.2143 41.0611 23.9199 40.7798 23.631 40.3859C23.5088 40.2509 23.32 40.0371 23.0645 39.7445C22.8201 39.4407 22.5257 39.0918 22.1813 38.698C21.848 38.3041 21.4869 37.8821 21.0981 37.432C20.7204 36.9819 20.3371 36.5374 19.9483 36.0985C19.5706 35.6484 19.2095 35.2264 18.8651 34.8325C18.5318 34.4387 18.2319 34.0898 17.9653 33.786C17.7097 33.4822 17.5153 33.2627 17.382 33.1277C17.3265 33.0489 17.2709 32.987 17.2154 32.942C17.1709 32.897 17.1265 32.8745 17.0821 32.8745C17.0376 32.8745 17.0043 32.9195 16.9821 33.0095C16.9599 33.0883 16.9487 33.1614 16.9487 33.229C16.9376 33.7691 16.9321 34.3937 16.9321 35.1026C16.9321 35.8115 16.9265 36.543 16.9154 37.297C16.9154 38.0397 16.9154 38.7374 16.9154 39.39C16.9154 39.7164 17.0043 40.0033 17.182 40.2509C17.3598 40.4872 17.6597 40.6504 18.0819 40.7404C18.2374 40.7742 18.3596 40.8136 18.4485 40.8586C18.5485 40.9036 18.5985 40.9711 18.5985 41.0611C18.5985 41.1286 18.5541 41.1793 18.4652 41.213C18.3763 41.2468 18.2652 41.2637 18.1319 41.2637C17.8319 41.2637 17.5986 41.2524 17.432 41.2299C17.2765 41.2187 17.132 41.2074 16.9987 41.1962C16.8654 41.1962 16.6877 41.1962 16.4655 41.1962C16.2544 41.1962 16.0711 41.2018 15.9156 41.213C15.7711 41.2243 15.6267 41.2356 15.4823 41.2468C15.3379 41.2581 15.1601 41.2637 14.949 41.2637C14.8268 41.2637 14.7158 41.2468 14.6158 41.213C14.5269 41.1905 14.4825 41.1399 14.4825 41.0611C14.4825 40.9824 14.5269 40.9205 14.6158 40.8755C14.7046 40.8192 14.8324 40.7685 14.999 40.7235C15.299 40.6335 15.5212 40.4703 15.6656 40.234C15.81 39.9865 15.8933 39.6939 15.9156 39.3563C15.96 38.9287 16.0044 38.366 16.0489 37.6683C16.1044 36.9706 16.1489 36.1885 16.1822 35.322C16.2155 34.4555 16.2322 33.5609 16.2322 32.6382C16.2322 32.0418 16.0822 31.6141 15.7823 31.3553C15.4823 31.0965 15.099 30.8883 14.6324 30.7308C14.5769 30.7083 14.4769 30.6632 14.3325 30.5957C14.1992 30.5282 14.1325 30.4438 14.1325 30.3425C14.1325 30.2413 14.1825 30.1737 14.2825 30.14C14.3825 30.1062 14.4658 30.0893 14.5324 30.0893C14.8213 30.1006 15.0713 30.1118 15.2823 30.1231C15.5045 30.1231 15.7156 30.1287 15.9156 30.14C16.1155 30.1512 16.3266 30.1625 16.5488 30.1737C16.771 30.1737 17.0321 30.1737 17.332 30.1737C17.432 30.1737 17.5098 30.2019 17.5653 30.2581C17.6209 30.3031 17.6709 30.3594 17.7153 30.4269C17.8375 30.5732 18.0264 30.8039 18.2819 31.119C18.5485 31.4341 18.854 31.8054 19.1984 32.2331C19.5539 32.6607 19.9316 33.1164 20.3316 33.6003C20.7315 34.0729 21.1314 34.5512 21.5314 35.0351C21.9313 35.519 22.309 35.9747 22.6645 36.4023C23.02 36.83 23.3255 37.2013 23.5811 37.5164C23.8477 37.8202 24.0365 38.0397 24.1476 38.1747C24.1921 38.2197 24.2476 38.2816 24.3143 38.3604C24.392 38.4392 24.4587 38.4785 24.5142 38.4785C24.6142 38.4785 24.6698 38.3716 24.6809 38.1578C24.6809 37.9328 24.6809 37.5952 24.6809 37.145C24.6809 36.6949 24.6809 36.1716 24.6809 35.5752C24.692 34.9788 24.6976 34.3543 24.6976 33.7016C24.6976 33.0377 24.692 32.3793 24.6809 31.7267C24.6698 31.4791 24.5531 31.2709 24.3309 31.1021C24.1088 30.9221 23.8699 30.8039 23.6144 30.7476C23.4589 30.7251 23.3144 30.6858 23.1811 30.6295C23.0478 30.5732 22.9811 30.5001 22.9811 30.4101C22.9811 30.3425 23.0478 30.2919 23.1811 30.2581C23.3144 30.2244 23.4422 30.2075 23.5644 30.2075C23.731 30.2075 23.8755 30.2075 23.9977 30.2075C24.131 30.2075 24.2587 30.2075 24.3809 30.2075C24.5031 30.2075 24.6253 30.2075 24.7475 30.2075C25.0031 30.2075 25.2086 30.2075 25.3641 30.2075C25.5196 30.1962 25.6863 30.185 25.864 30.1737C26.0529 30.1625 26.3084 30.1569 26.6306 30.1569C26.7639 30.1569 26.8694 30.1737 26.9472 30.2075C27.0361 30.2413 27.0805 30.2975 27.0805 30.3763C27.0805 30.5338 26.9083 30.6464 26.5639 30.7139C26.164 30.7927 25.8918 30.8996 25.7474 31.0346C25.603 31.1584 25.5252 31.3666 25.5141 31.6591C25.5141 31.8392 25.5085 32.1374 25.4974 32.5538C25.4863 32.9589 25.4752 33.4371 25.4641 33.9885C25.4641 34.5399 25.4585 35.1195 25.4474 35.7271C25.4363 36.3348 25.4308 36.9312 25.4308 37.5164C25.4308 38.1016 25.4308 38.6305 25.4308 39.1031C25.4308 39.3732 25.4419 39.6376 25.4641 39.8964C25.4863 40.144 25.503 40.3634 25.5141 40.5547C25.5363 40.7348 25.5474 40.8698 25.5474 40.9598C25.5474 41.1737 25.5085 41.3143 25.4308 41.3818C25.353 41.4606 25.2586 41.5 25.1475 41.5Z" fill="#31576A"/>
<path d="M34.5602 41.4494C34.0936 41.4494 33.6548 41.3818 33.2438 41.2468C32.8327 41.123 32.455 40.9317 32.1106 40.6729C32.0662 40.6279 32.0162 40.5772 31.9606 40.521C31.9162 40.4535 31.8829 40.3859 31.8606 40.3184C31.7829 40.0596 31.7273 39.7389 31.694 39.3563C31.6718 38.9624 31.6551 38.6136 31.644 38.3097C31.644 38.231 31.6773 38.1747 31.744 38.1409C31.8107 38.0959 31.8884 38.0734 31.9773 38.0734C32.0551 38.0734 32.1162 38.0903 32.1606 38.1241C32.2161 38.1466 32.255 38.1972 32.2772 38.276C32.5105 39.1312 32.8549 39.7726 33.3104 40.2003C33.7659 40.6166 34.2603 40.8248 34.7935 40.8248C35.1712 40.8248 35.4934 40.7404 35.76 40.5716C36.0378 40.4028 36.2544 40.1778 36.4099 39.8964C36.5655 39.6038 36.6432 39.2775 36.6432 38.9174C36.6432 38.4898 36.571 38.1409 36.4266 37.8709C36.2822 37.6008 36.0711 37.3589 35.7934 37.145C35.5156 36.9312 35.1712 36.7005 34.7602 36.453C34.3158 36.1829 33.877 35.9016 33.4437 35.609C33.0216 35.3164 32.6716 34.9732 32.3939 34.5793C32.1162 34.1855 31.9773 33.7016 31.9773 33.1277C31.9773 32.52 32.1162 31.9855 32.3939 31.5241C32.6827 31.0515 33.0993 30.6801 33.6437 30.4101C34.1881 30.1287 34.8435 29.9881 35.6101 29.9881C36.01 29.9881 36.3711 30.0331 36.6932 30.1231C37.0265 30.2019 37.2931 30.2863 37.4931 30.3763C37.5931 30.4101 37.6709 30.4663 37.7264 30.5451C37.7931 30.6239 37.8431 30.7195 37.8764 30.832C37.9319 31.0684 37.993 31.3441 38.0597 31.6591C38.1263 31.9742 38.1597 32.295 38.1597 32.6213C38.1597 32.7451 38.0708 32.807 37.893 32.807C37.7931 32.807 37.6986 32.7845 37.6098 32.7394C37.5209 32.6944 37.4653 32.6382 37.4431 32.5707C37.2209 31.9405 36.9432 31.4622 36.6099 31.1359C36.2877 30.8095 35.8767 30.6464 35.3768 30.6464C35.0435 30.6464 34.738 30.7083 34.4602 30.832C34.1936 30.9446 33.977 31.1359 33.8103 31.406C33.6548 31.6648 33.577 32.008 33.577 32.4356C33.577 32.7394 33.677 33.0264 33.877 33.2965C34.0881 33.5553 34.3658 33.8085 34.7102 34.0561C35.0657 34.2924 35.4601 34.5399 35.8934 34.7988C36.3488 35.0801 36.7599 35.3727 37.1265 35.6765C37.4931 35.9803 37.782 36.3292 37.993 36.723C38.2041 37.1057 38.3096 37.567 38.3096 38.1072C38.3096 38.8161 38.1541 39.4238 37.8431 39.9302C37.532 40.4253 37.0932 40.8023 36.5266 41.0611C35.9711 41.3199 35.3157 41.4494 34.5602 41.4494Z" fill="#31576A"/>
<path d="M46.3352 41.2637C46.213 41.2637 46.1075 41.2468 46.0186 41.213C45.9297 41.1905 45.8853 41.1399 45.8853 41.0611C45.8853 40.9824 45.9297 40.9205 46.0186 40.8755C46.1075 40.8192 46.2297 40.7742 46.3852 40.7404C46.8074 40.6616 47.124 40.5322 47.3351 40.3522C47.5462 40.1721 47.6517 39.8852 47.6517 39.4913V32.807C47.6517 32.3118 47.6406 31.9405 47.6184 31.6929C47.5962 31.4341 47.5628 31.2597 47.5184 31.1696C47.4739 31.0684 47.4128 31.0065 47.3351 30.984C47.2018 30.9502 47.0518 30.9333 46.8852 30.9333C46.7185 30.9221 46.5241 30.9164 46.3019 30.9164H45.652C45.3632 30.9164 45.0743 30.984 44.7855 31.119C44.5077 31.2428 44.2967 31.4228 44.1522 31.6591C44.1078 31.7267 44.0411 31.8223 43.9523 31.9461C43.8745 32.0586 43.7856 32.1599 43.6856 32.2499C43.5857 32.3287 43.4857 32.3681 43.3857 32.3681C43.3301 32.3681 43.2857 32.3456 43.2524 32.3006C43.2302 32.2556 43.219 32.1993 43.219 32.1318C43.219 32.008 43.2524 31.8842 43.319 31.7604C43.4968 31.4003 43.6245 31.0852 43.7023 30.8152C43.7801 30.5451 43.8412 30.2244 43.8856 29.853C43.9078 29.673 43.9523 29.5604 44.0189 29.5154C44.0856 29.4704 44.1522 29.4479 44.2189 29.4479C44.2744 29.4479 44.3467 29.5211 44.4355 29.6673C44.5355 29.8024 44.6133 29.9149 44.6688 30.0049C44.7577 30.1062 44.9243 30.185 45.1687 30.2413C45.4132 30.2975 45.6409 30.3257 45.852 30.3257L51.8677 30.3088C52.2121 30.3088 52.4954 30.2863 52.7176 30.2413C52.9509 30.1962 53.1397 30.14 53.2842 30.0725C53.4397 29.9937 53.5619 29.9093 53.6508 29.8193C53.7397 29.718 53.8563 29.6673 54.0007 29.6673C54.0452 29.6673 54.0785 29.7067 54.1007 29.7855C54.1229 29.853 54.134 29.9318 54.134 30.0218C54.134 30.0668 54.1285 30.1344 54.1174 30.2244C54.1063 30.3144 54.0952 30.3875 54.084 30.4438C54.0396 30.6576 53.9952 30.8264 53.9507 30.9502C53.9174 31.074 53.8896 31.1921 53.8674 31.3047C53.8563 31.406 53.8507 31.541 53.8507 31.7098V31.9461C53.8507 32.0811 53.8285 32.2106 53.7841 32.3343C53.7397 32.4581 53.673 32.52 53.5841 32.52C53.4952 32.52 53.423 32.4637 53.3675 32.3512C53.3119 32.2274 53.2564 32.053 53.2008 31.8279C53.1342 31.5354 52.9842 31.3103 52.7509 31.1528C52.5287 30.9952 52.1566 30.9164 51.6344 30.9164H50.2346C50.0124 30.9164 49.8403 30.9558 49.718 31.0346C49.5958 31.1021 49.5125 31.2709 49.4681 31.541C49.4348 31.7998 49.4181 32.2218 49.4181 32.807V39.4913C49.4181 39.8739 49.5236 40.1553 49.7347 40.3353C49.9569 40.5154 50.2791 40.6504 50.7012 40.7404C50.8568 40.7742 50.9734 40.8136 51.0512 40.8586C51.1401 40.9036 51.1845 40.9711 51.1845 41.0611C51.1845 41.1286 51.1456 41.1793 51.0678 41.213C50.9901 41.2468 50.8845 41.2637 50.7512 41.2637C50.4735 41.2637 50.218 41.2524 49.9847 41.2299C49.7514 41.2187 49.5236 41.2074 49.3014 41.1962C49.0793 41.1849 48.846 41.1793 48.6016 41.1793C48.3349 41.1793 48.085 41.1849 47.8517 41.1962C47.6184 41.2074 47.3795 41.2187 47.1351 41.2299C46.8907 41.2524 46.6241 41.2637 46.3352 41.2637Z" fill="#31576A"/>
<path d="M58.6952 41.2637C58.573 41.2637 58.4674 41.2468 58.3786 41.213C58.3008 41.1905 58.2619 41.1399 58.2619 41.0611C58.2619 40.9148 58.423 40.8079 58.7452 40.7404C59.1673 40.6616 59.4784 40.5379 59.6784 40.3691C59.8783 40.2003 59.9783 39.9246 59.9783 39.542V31.9123C59.9783 31.5297 59.9006 31.2597 59.745 31.1021C59.5895 30.9333 59.3006 30.8039 58.8785 30.7139C58.5563 30.6464 58.3952 30.5338 58.3952 30.3763C58.3952 30.2975 58.4341 30.2413 58.5119 30.2075C58.5896 30.1737 58.6896 30.1569 58.8118 30.1569C59.1007 30.1569 59.3562 30.1625 59.5784 30.1737C59.8117 30.185 60.0339 30.1962 60.2449 30.2075C60.456 30.2187 60.6838 30.2244 60.9282 30.2244C61.1615 30.2244 61.3781 30.2244 61.5781 30.2244C61.7892 30.2131 62.0002 30.2019 62.2113 30.1906C62.4335 30.1794 62.6835 30.1737 62.9612 30.1737C63.0945 30.1737 63.2 30.1906 63.2778 30.2244C63.3556 30.2469 63.3945 30.2975 63.3945 30.3763C63.3945 30.4663 63.35 30.5395 63.2612 30.5957C63.1834 30.6407 63.0667 30.6801 62.9112 30.7139C62.4779 30.8152 62.1724 30.9446 61.9947 31.1021C61.828 31.2597 61.7447 31.5297 61.7447 31.9123V39.542C61.7447 39.9133 61.8503 40.1834 62.0613 40.3522C62.2724 40.521 62.5835 40.6504 62.9945 40.7404C63.1612 40.7742 63.2834 40.8136 63.3611 40.8586C63.4389 40.9036 63.4778 40.9711 63.4778 41.0611C63.4778 41.1286 63.4389 41.1793 63.3611 41.213C63.2945 41.2468 63.1945 41.2637 63.0612 41.2637C62.7834 41.2637 62.5279 41.2524 62.2946 41.2299C62.0613 41.2187 61.8336 41.2074 61.6114 41.1962C61.4003 41.1849 61.1726 41.1793 60.9282 41.1793C60.6615 41.1793 60.4116 41.1849 60.1783 41.1962C59.9561 41.2074 59.7228 41.2187 59.4784 41.2299C59.234 41.2524 58.9729 41.2637 58.6952 41.2637Z" fill="#31576A"/>
<path d="M71.1042 41.2637C70.982 41.2637 70.8765 41.2468 70.7876 41.213C70.6987 41.1905 70.6543 41.1399 70.6543 41.0611C70.6543 40.9824 70.6987 40.9205 70.7876 40.8755C70.8765 40.8192 70.9987 40.7742 71.1542 40.7404C71.5764 40.6616 71.893 40.5322 72.1041 40.3522C72.3151 40.1721 72.4207 39.8852 72.4207 39.4913V32.807C72.4207 32.3118 72.4096 31.9405 72.3873 31.6929C72.3651 31.4341 72.3318 31.2597 72.2874 31.1696C72.2429 31.0684 72.1818 31.0065 72.1041 30.984C71.9708 30.9502 71.8208 30.9333 71.6541 30.9333C71.4875 30.9221 71.2931 30.9164 71.0709 30.9164H70.421C70.1321 30.9164 69.8433 30.984 69.5545 31.119C69.2767 31.2428 69.0656 31.4228 68.9212 31.6591C68.8768 31.7267 68.8101 31.8223 68.7213 31.9461C68.6435 32.0586 68.5546 32.1599 68.4546 32.2499C68.3546 32.3287 68.2546 32.3681 68.1547 32.3681C68.0991 32.3681 68.0547 32.3456 68.0214 32.3006C67.9991 32.2556 67.988 32.1993 67.988 32.1318C67.988 32.008 68.0214 31.8842 68.088 31.7604C68.2658 31.4003 68.3935 31.0852 68.4713 30.8152C68.549 30.5451 68.6102 30.2244 68.6546 29.853C68.6768 29.673 68.7212 29.5604 68.7879 29.5154C68.8546 29.4704 68.9212 29.4479 68.9879 29.4479C69.0434 29.4479 69.1156 29.5211 69.2045 29.6673C69.3045 29.8024 69.3823 29.9149 69.4378 30.0049C69.5267 30.1062 69.6933 30.185 69.9377 30.2413C70.1821 30.2975 70.4099 30.3257 70.621 30.3257L76.6367 30.3088C76.9811 30.3088 77.2644 30.2863 77.4866 30.2413C77.7199 30.1962 77.9087 30.14 78.0531 30.0725C78.2087 29.9937 78.3309 29.9093 78.4198 29.8193C78.5086 29.718 78.6253 29.6673 78.7697 29.6673C78.8141 29.6673 78.8475 29.7067 78.8697 29.7855C78.8919 29.853 78.903 29.9318 78.903 30.0218C78.903 30.0668 78.8975 30.1344 78.8864 30.2244C78.8752 30.3144 78.8641 30.3875 78.853 30.4438C78.8086 30.6576 78.7641 30.8264 78.7197 30.9502C78.6864 31.074 78.6586 31.1921 78.6364 31.3047C78.6253 31.406 78.6197 31.541 78.6197 31.7098V31.9461C78.6197 32.0811 78.5975 32.2106 78.5531 32.3343C78.5086 32.4581 78.442 32.52 78.3531 32.52C78.2642 32.52 78.192 32.4637 78.1365 32.3512C78.0809 32.2274 78.0254 32.053 77.9698 31.8279C77.9032 31.5354 77.7532 31.3103 77.5199 31.1528C77.2977 30.9952 76.9255 30.9164 76.4034 30.9164H75.0036C74.7814 30.9164 74.6092 30.9558 74.487 31.0346C74.3648 31.1021 74.2815 31.2709 74.2371 31.541C74.2037 31.7998 74.1871 32.2218 74.1871 32.807V39.4913C74.1871 39.8739 74.2926 40.1553 74.5037 40.3353C74.7259 40.5154 75.0481 40.6504 75.4702 40.7404C75.6257 40.7742 75.7424 40.8136 75.8202 40.8586C75.909 40.9036 75.9535 40.9711 75.9535 41.0611C75.9535 41.1286 75.9146 41.1793 75.8368 41.213C75.759 41.2468 75.6535 41.2637 75.5202 41.2637C75.2425 41.2637 74.987 41.2524 74.7537 41.2299C74.5204 41.2187 74.2926 41.2074 74.0704 41.1962C73.8482 41.1849 73.6149 41.1793 73.3705 41.1793C73.1039 41.1793 72.8539 41.1849 72.6206 41.1962C72.3873 41.2074 72.1485 41.2187 71.9041 41.2299C71.6597 41.2524 71.3931 41.2637 71.1042 41.2637Z" fill="#31576A"/>
<path d="M88.93 41.4325C87.9301 41.4325 87.0914 41.2524 86.4137 40.8923C85.736 40.5322 85.225 40.0258 84.8806 39.3732C84.5362 38.7092 84.364 37.9384 84.364 37.0606V32.0136C84.364 31.6423 84.2863 31.3497 84.1307 31.1359C83.9863 30.9221 83.803 30.7927 83.5808 30.7476C83.2253 30.6464 83.0476 30.5226 83.0476 30.3763C83.0476 30.2975 83.092 30.2413 83.1809 30.2075C83.2697 30.1737 83.3808 30.1569 83.5142 30.1569C83.803 30.1569 84.0974 30.1681 84.3973 30.1906C84.6973 30.2131 85.0028 30.2244 85.3139 30.2244C85.5916 30.2244 85.8805 30.2187 86.1804 30.2075C86.4804 30.185 86.747 30.1737 86.9803 30.1737C87.1247 30.1737 87.2358 30.1906 87.3136 30.2244C87.4024 30.2581 87.4469 30.3144 87.4469 30.3932C87.4469 30.4832 87.3858 30.5563 87.2636 30.6126C87.1525 30.6576 87.0025 30.7139 86.8136 30.7814C86.6692 30.8377 86.5192 30.9727 86.3637 31.1865C86.2193 31.3891 86.1471 31.6704 86.1471 32.0305V36.6555C86.1471 37.5108 86.2859 38.2141 86.5637 38.7655C86.8414 39.3169 87.2247 39.722 87.7135 39.9808C88.2023 40.2396 88.7522 40.3691 89.3633 40.3691C90.4631 40.3691 91.2685 40.0033 91.7795 39.2719C92.3017 38.5292 92.5628 37.5108 92.5628 36.2167C92.5628 35.9578 92.5628 35.6315 92.5628 35.2376C92.5628 34.8438 92.5572 34.4274 92.5461 33.9885C92.5461 33.5497 92.5405 33.1333 92.5294 32.7394C92.5183 32.3681 92.485 32.053 92.4294 31.7942C92.385 31.5241 92.3072 31.299 92.1962 31.119C92.0851 30.9389 91.9406 30.8208 91.7629 30.7645C91.6518 30.7195 91.524 30.6689 91.3796 30.6126C91.2463 30.5563 91.1796 30.4832 91.1796 30.3932C91.1796 30.3257 91.2241 30.275 91.313 30.2413C91.4018 30.2075 91.5185 30.1906 91.6629 30.1906C91.974 30.1906 92.2184 30.1962 92.3961 30.2075C92.5739 30.2187 92.7905 30.2244 93.046 30.2244C93.2349 30.2244 93.4015 30.2187 93.5459 30.2075C93.7015 30.1962 93.8515 30.185 93.9959 30.1737C94.1403 30.1625 94.2903 30.1569 94.4458 30.1569C94.5791 30.1569 94.6902 30.1737 94.7791 30.2075C94.868 30.2413 94.9124 30.2975 94.9124 30.3763C94.9124 30.5226 94.7402 30.6351 94.3958 30.7139C94.0736 30.7927 93.8459 30.9446 93.7126 31.1696C93.5904 31.3947 93.5182 31.6929 93.4959 32.0643C93.4404 32.987 93.4071 33.8366 93.396 34.6131C93.3849 35.3783 93.3682 36.1435 93.346 36.9087C93.3349 37.7865 93.1293 38.5686 92.7294 39.255C92.3406 39.9414 91.8184 40.476 91.163 40.8586C90.5075 41.2412 89.7632 41.4325 88.93 41.4325Z" fill="#31576A"/>
<path d="M102.041 41.2637C101.919 41.2637 101.814 41.2468 101.725 41.213C101.636 41.1905 101.591 41.1399 101.591 41.0611C101.591 40.9824 101.636 40.9205 101.725 40.8755C101.814 40.8192 101.936 40.7742 102.091 40.7404C102.513 40.6616 102.83 40.5322 103.041 40.3522C103.252 40.1721 103.358 39.8852 103.358 39.4913V32.807C103.358 32.3118 103.347 31.9405 103.324 31.6929C103.302 31.4341 103.269 31.2597 103.224 31.1696C103.18 31.0684 103.119 31.0065 103.041 30.984C102.908 30.9502 102.758 30.9333 102.591 30.9333C102.425 30.9221 102.23 30.9164 102.008 30.9164H101.358C101.069 30.9164 100.78 30.984 100.492 31.119C100.214 31.2428 100.003 31.4228 99.8583 31.6591C99.8138 31.7267 99.7472 31.8223 99.6583 31.9461C99.5805 32.0586 99.4917 32.1599 99.3917 32.2499C99.2917 32.3287 99.1917 32.3681 99.0917 32.3681C99.0362 32.3681 98.9917 32.3456 98.9584 32.3006C98.9362 32.2556 98.9251 32.1993 98.9251 32.1318C98.9251 32.008 98.9584 31.8842 99.0251 31.7604C99.2028 31.4003 99.3306 31.0852 99.4083 30.8152C99.4861 30.5451 99.5472 30.2244 99.5917 29.853C99.6139 29.673 99.6583 29.5604 99.725 29.5154C99.7916 29.4704 99.8583 29.4479 99.9249 29.4479C99.9805 29.4479 100.053 29.5211 100.142 29.6673C100.242 29.8024 100.319 29.9149 100.375 30.0049C100.464 30.1062 100.63 30.185 100.875 30.2413C101.119 30.2975 101.347 30.3257 101.558 30.3257L107.574 30.3088C107.918 30.3088 108.201 30.2863 108.424 30.2413C108.657 30.1962 108.846 30.14 108.99 30.0725C109.146 29.9937 109.268 29.9093 109.357 29.8193C109.446 29.718 109.562 29.6673 109.707 29.6673C109.751 29.6673 109.785 29.7067 109.807 29.7855C109.829 29.853 109.84 29.9318 109.84 30.0218C109.84 30.0668 109.835 30.1344 109.823 30.2244C109.812 30.3144 109.801 30.3875 109.79 30.4438C109.746 30.6576 109.701 30.8264 109.657 30.9502C109.623 31.074 109.596 31.1921 109.573 31.3047C109.562 31.406 109.557 31.541 109.557 31.7098V31.9461C109.557 32.0811 109.535 32.2106 109.49 32.3343C109.446 32.4581 109.379 32.52 109.29 32.52C109.201 32.52 109.129 32.4637 109.074 32.3512C109.018 32.2274 108.962 32.053 108.907 31.8279C108.84 31.5354 108.69 31.3103 108.457 31.1528C108.235 30.9952 107.863 30.9164 107.34 30.9164H105.941C105.718 30.9164 105.546 30.9558 105.424 31.0346C105.302 31.1021 105.219 31.2709 105.174 31.541C105.141 31.7998 105.124 32.2218 105.124 32.807V39.4913C105.124 39.8739 105.23 40.1553 105.441 40.3353C105.663 40.5154 105.985 40.6504 106.407 40.7404C106.563 40.7742 106.679 40.8136 106.757 40.8586C106.846 40.9036 106.891 40.9711 106.891 41.0611C106.891 41.1286 106.852 41.1793 106.774 41.213C106.696 41.2468 106.591 41.2637 106.457 41.2637C106.18 41.2637 105.924 41.2524 105.691 41.2299C105.457 41.2187 105.23 41.2074 105.007 41.1962C104.785 41.1849 104.552 41.1793 104.308 41.1793C104.041 41.1793 103.791 41.1849 103.558 41.1962C103.324 41.2074 103.086 41.2187 102.841 41.2299C102.597 41.2524 102.33 41.2637 102.041 41.2637Z" fill="#31576A"/>
<path d="M114.618 41.2806C114.485 41.2806 114.379 41.2637 114.301 41.2299C114.223 41.1962 114.185 41.1455 114.185 41.078C114.185 40.9317 114.346 40.8248 114.668 40.7573C115.079 40.6673 115.373 40.5435 115.551 40.3859C115.74 40.2171 115.834 39.9358 115.834 39.542V31.9123C115.834 31.5297 115.757 31.254 115.601 31.0852C115.446 30.9164 115.162 30.7927 114.751 30.7139C114.585 30.6801 114.462 30.6351 114.385 30.5788C114.307 30.5226 114.268 30.4551 114.268 30.3763C114.268 30.3088 114.307 30.2581 114.385 30.2244C114.462 30.1794 114.568 30.1569 114.701 30.1569C115.068 30.1569 115.396 30.1625 115.684 30.1737C115.984 30.185 116.273 30.1962 116.551 30.2075C116.84 30.2187 117.151 30.2244 117.484 30.2244C117.928 30.2244 118.395 30.2244 118.884 30.2244C119.384 30.2131 119.834 30.2019 120.234 30.1906C120.611 30.1906 120.922 30.185 121.167 30.1737C121.422 30.1512 121.572 30.14 121.617 30.14C121.683 30.14 121.75 30.1569 121.817 30.1906C121.895 30.2131 121.939 30.2638 121.95 30.3425C122.006 30.6914 122.061 31.0346 122.117 31.3722C122.183 31.6985 122.217 31.9855 122.217 32.2331C122.217 32.3456 122.189 32.4244 122.133 32.4694C122.089 32.5031 122.039 32.52 121.983 32.52C121.928 32.52 121.883 32.5031 121.85 32.4694C121.817 32.4356 121.783 32.385 121.75 32.3175C121.672 32.0924 121.6 31.8898 121.533 31.7098C121.467 31.5185 121.389 31.3778 121.3 31.2878C121.156 31.1303 120.989 31.0121 120.8 30.9333C120.611 30.8546 120.4 30.8152 120.167 30.8152H118.301C118.156 30.8152 118.001 30.8714 117.834 30.984C117.678 31.0852 117.601 31.2315 117.601 31.4228V34.8663C117.601 34.9788 117.634 35.0688 117.701 35.1364C117.767 35.2039 117.845 35.2376 117.934 35.2376H119.517C119.839 35.2376 120.061 35.1645 120.184 35.0182C120.306 34.8719 120.406 34.6468 120.484 34.343C120.561 34.118 120.667 34.0054 120.8 34.0054C120.856 34.0054 120.906 34.0336 120.95 34.0898C120.995 34.1348 121.017 34.208 121.017 34.3093C121.017 34.3768 121.011 34.4893 121 34.6469C120.989 34.8044 120.978 34.9676 120.967 35.1364C120.956 35.3052 120.95 35.4402 120.95 35.5415C120.95 35.6653 120.95 35.8172 120.95 35.9972C120.961 36.166 120.972 36.3348 120.984 36.5036C120.995 36.6724 121 36.7962 121 36.875C121.011 36.9762 121 37.0606 120.967 37.1282C120.945 37.1844 120.906 37.2126 120.85 37.2126C120.672 37.2126 120.539 37.0494 120.45 36.723C120.384 36.4305 120.289 36.211 120.167 36.0647C120.056 35.9185 119.889 35.8453 119.667 35.8453H118.117C117.94 35.8453 117.806 35.8734 117.717 35.9297C117.64 35.986 117.601 36.1041 117.601 36.2842V39.5082C117.601 39.9021 117.684 40.1778 117.851 40.3353C118.017 40.4816 118.273 40.5547 118.617 40.5547H119.934C120.245 40.5547 120.517 40.5322 120.75 40.4872C120.984 40.4422 121.184 40.3578 121.35 40.234C121.539 40.099 121.706 39.9246 121.85 39.7108C121.994 39.4969 122.144 39.2325 122.3 38.9174C122.344 38.8499 122.389 38.7993 122.433 38.7655C122.478 38.7205 122.528 38.7036 122.583 38.7149C122.65 38.7149 122.694 38.743 122.717 38.7993C122.75 38.8443 122.767 38.9062 122.767 38.9849C122.767 39.1087 122.739 39.2944 122.683 39.542C122.628 39.7895 122.556 40.0483 122.467 40.3184C122.389 40.5885 122.317 40.8192 122.25 41.0105C122.217 41.0893 122.178 41.1512 122.133 41.1962C122.089 41.2524 122.033 41.2806 121.967 41.2806C121.567 41.2806 121.15 41.2749 120.717 41.2637C120.284 41.2524 119.839 41.2412 119.384 41.2299C118.928 41.2187 118.473 41.2074 118.017 41.1962C117.562 41.1849 117.112 41.1793 116.668 41.1793C116.434 41.1793 116.212 41.1849 116.001 41.1962C115.79 41.2187 115.573 41.2356 115.351 41.2468C115.14 41.2693 114.896 41.2806 114.618 41.2806Z" fill="#31576A"/>
</svg>
