<svg width="72" height="72" viewBox="0 0 72 72" fill="none" xmlns="http://www.w3.org/2000/svg">
<path d="M47.6539 70.1087C35.9712 73.7301 25.1267 72.1701 15.0926 65.263C14.8136 65.071 14.5766 64.7757 14.4033 64.48C11.3024 59.1871 9.18619 53.5463 8.42006 47.44C8.13379 45.1584 8.06524 42.8712 8.76989 40.6467C8.9951 39.9358 9.32849 39.21 9.79049 38.6326C10.7405 37.4453 12.2836 37.5192 13.1026 38.7999C13.5925 39.5659 13.8972 40.4592 14.2205 41.3193C15.329 44.269 16.341 47.2566 17.5232 50.1761C18.3349 52.1808 19.5794 53.9502 21.1902 55.4312C23.7625 57.7962 26.6826 57.8706 29.3732 55.6397C30.8252 54.4359 31.8748 52.9195 32.7493 51.2706C32.8762 51.0314 33.0006 50.791 33.1234 50.5564C33.2024 50.5741 33.2654 50.5693 33.2977 50.5983C35.3608 52.4495 37.6367 52.3968 40.0061 51.3163C42.167 50.331 44.0222 48.8849 45.7177 47.2621C48.5537 44.5477 51.2772 41.7161 54.1258 39.0155C55.7629 37.4635 57.5296 36.0429 59.2882 34.6252C59.8493 34.1728 60.5408 33.8269 61.2281 33.5972C62.2296 33.2624 63.0237 32.6568 63.4248 31.7593C64.1748 30.0811 64.7585 28.3288 65.4019 26.6038C65.4448 26.4888 65.4075 26.3442 65.4075 26.2944C63.9793 26.7482 62.5925 27.3651 61.1429 27.6052C59.297 27.9109 57.4015 27.9985 55.5252 28.0237C52.687 28.062 49.847 27.9468 47.0075 27.9303C43.1383 27.9079 40.7054 29.9605 39.2162 33.3541C38.1216 35.8486 37.5739 38.4716 37.3468 41.1702C37.3228 41.455 37.3749 41.7462 37.3917 42.0344C37.4713 42.0906 37.5509 42.1467 37.6305 42.2028C37.951 41.8989 38.3841 41.6512 38.5705 41.2803C39.1057 40.2152 39.5436 39.1015 40.0144 38.0046C40.2282 37.5064 40.4035 36.9903 40.6419 36.5046C41.0414 35.6907 41.7227 35.3264 42.6308 35.3282C46.3171 35.3352 50.0034 35.3311 53.8456 35.3311C53.6788 35.6364 53.6314 35.7792 53.5395 35.8831C51.2201 38.5044 48.6858 40.8985 45.8344 42.9378C44.363 43.9901 42.7873 44.8535 40.9166 44.9943C38.6755 45.1629 37.0145 44.2276 36.0498 42.2506C35.3374 40.7907 34.817 39.2364 34.232 37.7162C30.5422 28.128 26.8584 18.5376 23.1715 8.94827C23.084 8.72072 22.9837 8.49806 22.8457 8.16901C21.8172 9.71665 21.1978 11.3407 20.7807 13.0533C19.8534 16.8613 20.5474 20.467 21.9626 24.0522C24.8465 31.3579 27.6397 38.6994 30.4197 46.0452C30.8365 47.1465 30.9796 48.3506 31.2479 49.5009C29.2505 50.2413 27.5762 49.932 26.0301 48.7445C23.6815 46.9406 22.1828 44.5298 21.1424 41.8262C20.2351 39.4682 19.493 37.0468 18.5723 34.6945C18.2125 33.7752 17.6614 32.8877 17.0268 32.1271C15.9099 30.7885 14.4562 30.5861 12.8981 31.3801C11.5264 32.079 10.4933 33.1595 9.58295 34.3635C6.4294 38.5347 4.69826 43.2496 4.23883 48.4355C4.12476 49.7232 4.09529 51.0183 4.02631 52.3219C-1.38665 42.6628 -2.12499 27.3717 6.70926 15.1084C15.9657 2.25891 32.1561 -3.09674 47.244 1.785C62.5407 6.73427 71.2718 20.4435 72 33.1456C70.3286 33.7656 68.6285 34.2718 67.0371 35.0106C62.8506 36.9541 59.5748 40.0812 56.4518 43.3802C53.8658 46.112 51.3587 48.9219 48.6941 51.5749C44.8244 55.4277 40.1677 57.9523 34.8466 59.2452C34.5072 59.3277 34.1742 59.4361 33.7704 59.552C41.6004 61.3529 49.2918 59.5613 54.8981 53.3891C57.9229 50.059 60.9211 46.7014 64.6127 44.0623C66.778 42.5144 69.1099 41.3022 71.8462 40.5524C71.2648 45.534 69.6908 50.0842 67.1646 54.292C62.6038 61.889 56.1041 67.1547 47.6539 70.1087ZM16.3286 21.0803C16.3424 20.8914 16.3698 20.7023 16.3678 20.5136C16.3536 19.1499 15.2058 18.0162 13.8652 18.0356C12.481 18.0557 11.4061 19.1631 11.4197 20.5548C11.432 21.8046 12.2285 22.7182 13.5226 22.9667C14.7089 23.1946 15.7079 22.5577 16.3286 21.0803ZM11.4793 27.4474C11.5542 27.6227 11.6115 27.808 11.7067 27.9714C12.2355 28.8793 13.0395 29.3209 14.0845 29.2668C15.0786 29.2153 15.9733 28.4516 16.2857 27.4516C16.5665 26.5528 16.2442 25.5099 15.464 24.8852C14.6384 24.2241 13.7002 24.1173 12.7766 24.5814C11.674 25.1354 11.2778 26.1051 11.4793 27.4474Z" fill="#32586B"/>
<path d="M16.3816 21.1264C15.7627 22.5749 14.7308 23.2269 13.5055 22.9937C12.1689 22.7393 11.3461 21.8039 11.3335 20.5242C11.3194 19.0992 12.4297 17.9654 13.8594 17.9449C15.244 17.9249 16.4297 19.0857 16.4443 20.482C16.4464 20.6752 16.4181 20.8688 16.3816 21.1264Z" fill="#CE9808"/>
<path d="M11.3795 27.3899C11.186 26.1407 11.5938 25.1904 12.7289 24.6476C13.6797 24.1928 14.6456 24.2975 15.4956 24.9453C16.2988 25.5574 16.6306 26.5793 16.3415 27.4601C16.0199 28.44 15.0988 29.1883 14.0755 29.2387C12.9996 29.2917 12.1719 28.859 11.6276 27.9695C11.5295 27.8093 11.4705 27.6277 11.3795 27.3899Z" fill="#CF9808"/>
</svg>
